<?xml version="1.0" encoding="UTF-8" standalone="no"?>
<!-- Created with Inkscape (http://www.inkscape.org/) -->

<svg
   version="1.1"
   id="svg2"
   width="74.11795"
   height="40.626587"
   viewBox="0 0 74.11795 40.626587"
   sodipodi:docname="6192813_239.svg"
   xmlns:inkscape="http://www.inkscape.org/namespaces/inkscape"
   xmlns:sodipodi="http://sodipodi.sourceforge.net/DTD/sodipodi-0.dtd"
   xmlns="http://www.w3.org/2000/svg"
   xmlns:svg="http://www.w3.org/2000/svg">
  <defs
     id="defs6" />
  <sodipodi:namedview
     id="namedview4"
     pagecolor="#ffffff"
     bordercolor="#000000"
     borderopacity="0.25"
     inkscape:showpageshadow="2"
     inkscape:pageopacity="0.0"
     inkscape:pagecheckerboard="0"
     inkscape:deskcolor="#d1d1d1"
     showgrid="false" />
  <g
     id="g8"
     inkscape:groupmode="layer"
     inkscape:label="ink_ext_XXXXXX"
     transform="matrix(1.3333333,0,0,-1.3333333,-434.1131,336.97202)">
    <g
       id="g10"
       transform="scale(0.1)">
      <path
         d="m 1478.55,709.93 c -17.09,0 -30.95,-13.86 -30.95,-30.961 v -154.77 c 0,-22.75 -18.51,-41.269 -41.27,-41.269 -22.76,0 -41.28,18.519 -41.28,41.269 v 154.77 c 0,17.101 -13.85,30.961 -30.95,30.961 -17.1,0 -30.96,-13.86 -30.96,-30.961 v -154.77 c 0,-56.898 46.29,-103.179 103.19,-103.179 56.89,0 103.18,46.281 103.18,103.179 v 154.77 c 0,17.101 -13.86,30.961 -30.96,30.961"
         style="fill:#211d1d;fill-opacity:1;fill-rule:nonzero;stroke:none"
         id="path14" />
      <path
         d="m 3478.96,482.93 h -123.29 l 147.81,176.148 c 10.98,13.102 9.27,32.621 -3.82,43.613 -13.1,10.989 -32.63,9.278 -43.62,-3.812 L 3265.57,471.871 c -6.31,-7.519 -8.42,-17.16 -6.6,-26.101 0.01,-0.051 0.02,-0.098 0.04,-0.149 0.2,-0.941 0.43,-1.871 0.72,-2.793 0.02,-0.078 0.06,-0.148 0.07,-0.238 0.29,-0.879 0.6,-1.758 0.97,-2.621 0.02,-0.047 0.04,-0.098 0.07,-0.16 0.37,-0.868 0.78,-1.727 1.24,-2.579 0.01,0 0.01,-0.011 0.01,-0.011 1.8,-3.321 4.22,-6.379 7.29,-8.957 1.62,-1.364 3.33,-2.5 5.11,-3.473 0.07,-0.027 0.15,-0.07 0.22,-0.098 0.78,-0.421 1.58,-0.812 2.39,-1.152 0.15,-0.07 0.29,-0.129 0.44,-0.187 0.75,-0.301 1.51,-0.59 2.28,-0.832 0.2,-0.071 0.39,-0.129 0.58,-0.188 0.76,-0.223 1.53,-0.422 2.31,-0.582 0.19,-0.051 0.39,-0.09 0.59,-0.129 0.85,-0.172 1.7,-0.301 2.56,-0.402 0.13,-0.008 0.24,-0.028 0.37,-0.039 1.01,-0.098 2.02,-0.16 3.04,-0.16 0.05,0 0.1,0.011 0.14,0.011 h 189.55 c 17.1,0 30.96,13.848 30.96,30.949 0,17.09 -13.86,30.95 -30.96,30.95"
         style="fill:#211d1d;fill-opacity:1;fill-rule:nonzero;stroke:none"
         id="path16" />
      <path
         d="m 3545.6065,2343.9967 h 82.2955 c 16.0845,0 29.1385,13.851 29.1385,30.941 0,17.098 -13.054,30.961 -29.1385,30.961 h -82.2955 c -16.0939,0 -29.1385,-13.863 -29.1385,-30.961 0,-17.09 13.0446,-30.941 29.1385,-30.941"
         style="fill:#64ccdb;fill-opacity:1;fill-rule:nonzero;stroke:none;stroke-width:4.42796;stroke-linecap:round;stroke-linejoin:round;stroke-miterlimit:4;stroke-dasharray:none;stroke-dashoffset:0;stroke-opacity:1;paint-order:stroke markers fill"
         id="path18"
         inkscape:export-filename="logo.svg"
         inkscape:export-xdpi="96"
         inkscape:export-ydpi="96" />
      <path
         d="m 1761.18,688.031 c -5,16.34 -22.31,25.539 -38.66,20.551 -16.34,-5 -25.54,-22.301 -20.55,-38.66 l 69.41,-227 c 4.07,-13.332 16.33,-21.91 29.59,-21.91 2.99,0 6.05,0.437 9.06,1.359 16.35,4.988 25.55,22.301 20.55,38.66 l -69.4,227"
         style="fill:#211d1d;fill-opacity:1;fill-rule:nonzero;stroke:none"
         id="path20" />
      <path
         d="m 1885.24,648.16 c 17.09,0 30.95,13.86 30.95,30.961 0,17.09 -13.86,30.961 -30.95,30.961 -17.1,0 -30.96,-13.871 -30.96,-30.961 0,-17.101 13.86,-30.961 30.96,-30.961"
         style="fill:#211d1d;fill-opacity:1;fill-rule:nonzero;stroke:none"
         id="path22" />
      <path
         d="m 708.012,620.059 c 17.093,0 30.953,13.863 30.953,30.961 0,17.089 -13.86,30.941 -30.953,30.941 -17.098,0 -30.957,-13.852 -30.957,-30.941 0,-17.098 13.859,-30.961 30.957,-30.961"
         style="fill:#211d1d;fill-opacity:1;fill-rule:nonzero;stroke:none"
         id="path24" />
      <path
         d="m 659.535,595.391 c -0.125,0 -0.258,0 -0.39,0 l -81.286,-1.02 c -14.714,0.078 -26.664,12.09 -26.664,26.82 0,14.797 12.035,26.829 26.828,26.829 H 617.5 c 0.406,-0.008 0.805,-0.059 1.223,-0.059 17.093,0 30.949,13.859 30.949,30.961 0,17.09 -13.856,30.949 -30.949,30.949 v 0.059 h -40.7 c -48.929,0 -88.742,-39.801 -88.742,-88.739 0,-48.929 39.813,-88.742 88.742,-88.742 0.129,0 0.262,0 0.391,0 l 81.281,1.039 c 14.153,-0.09 25.637,-11.629 25.637,-25.797 0,-14.222 -11.57,-25.8 -25.797,-25.8 h -40.812 c -17.102,0 -30.957,-13.852 -30.957,-30.95 0,-17.101 13.855,-30.961 30.957,-30.961 h 40.812 c 48.363,0 87.711,39.352 87.711,87.711 0,48.36 -39.348,87.7 -87.711,87.7"
         style="fill:#211d1d;fill-opacity:1;fill-rule:nonzero;stroke:none"
         id="path26" />
      <path
         d="m 527.715,447.941 c 17.098,0 30.957,13.86 30.957,30.957 0,17.09 -13.859,30.954 -30.957,30.954 -17.094,0 -30.953,-13.864 -30.953,-30.954 0,-17.097 13.859,-30.957 30.953,-30.957"
         style="fill:#211d1d;fill-opacity:1;fill-rule:nonzero;stroke:none"
         id="path28" />
      <path
         d="m 2522.63,482.781 c -17.1,0 -30.96,-13.851 -30.96,-30.949 0,-17.094 13.86,-30.961 30.96,-30.961 17.1,0 30.95,13.867 30.95,30.961 0,17.098 -13.85,30.949 -30.95,30.949"
         style="fill:#211d1d;fill-opacity:1;fill-rule:nonzero;stroke:none"
         id="path30" />
      <path
         d="m 2654.22,648.16 c 17.1,0 30.96,13.86 30.96,30.961 0,17.09 -13.86,30.961 -30.96,30.961 -17.1,0 -30.96,-13.871 -30.96,-30.961 0,-17.101 13.86,-30.961 30.96,-30.961"
         style="fill:#211d1d;fill-opacity:1;fill-rule:nonzero;stroke:none"
         id="path32" />
      <path
         d="m 2549.5,694.469 c -8.55,14.812 -27.48,19.871 -42.29,11.312 -14.8,-8.551 -19.87,-27.48 -11.31,-42.281 l 131.22,-227.02 c 5.73,-9.921 16.13,-15.46 26.83,-15.46 5.25,0 10.58,1.339 15.45,4.16 14.81,8.55 19.88,27.492 11.31,42.289 l -131.21,227"
         style="fill:#211d1d;fill-opacity:1;fill-rule:nonzero;stroke:none"
         id="path34" />
      <path
         d="m 2924.42,648.102 c 17.1,0 30.96,13.847 30.96,30.937 0,17.102 -13.86,30.961 -30.96,30.961 -17.1,0 -30.95,-13.859 -30.95,-30.961 0,-17.09 13.85,-30.937 30.95,-30.937"
         style="fill:#211d1d;fill-opacity:1;fill-rule:nonzero;stroke:none"
         id="path36" />
      <path
         d="m 3071.22,705.711 c -14.8,8.559 -33.74,3.5 -42.29,-11.313 l -131.22,-227 c -8.56,-14.796 -3.49,-33.738 11.31,-42.289 4.88,-2.82 10.21,-4.16 15.46,-4.16 10.7,0 21.1,5.539 26.83,15.473 l 131.21,227 c 8.56,14.797 3.5,33.738 -11.3,42.289"
         style="fill:#211d1d;fill-opacity:1;fill-rule:nonzero;stroke:none"
         id="path38" />
      <path
         d="m 2325.63,648.16 c 17.09,0 30.95,13.86 30.95,30.961 0,17.09 -13.86,30.961 -30.95,30.961 -17.09,0 -30.95,-13.871 -30.95,-30.961 0,-17.101 13.86,-30.961 30.95,-30.961"
         style="fill:#211d1d;fill-opacity:1;fill-rule:nonzero;stroke:none"
         id="path40" />
      <path
         d="m 2201.57,688.031 c -5,16.34 -22.3,25.539 -38.65,20.551 -16.35,-5 -25.55,-22.301 -20.56,-38.66 l 69.41,-227 c 4.08,-13.332 16.34,-21.91 29.6,-21.91 2.99,0 6.04,0.437 9.05,1.347 16.36,5 25.56,22.313 20.56,38.672 l -69.41,227"
         style="fill:#211d1d;fill-opacity:1;fill-rule:nonzero;stroke:none"
         id="path42" />
      <path
         d="m 2098.39,688.031 c -5,16.34 -22.31,25.539 -38.65,20.551 -16.35,-5 -25.56,-22.301 -20.56,-38.66 l 69.4,-227 c 4.09,-13.332 16.34,-21.91 29.6,-21.91 2.99,0 6.05,0.437 9.06,1.347 16.34,5 25.55,22.313 20.55,38.672 l -69.4,227"
         style="fill:#211d1d;fill-opacity:1;fill-rule:nonzero;stroke:none"
         id="path44" />
      <path
         d="M 1084.53,709.41 H 940.066 c -17.097,0 -30.957,-13.851 -30.957,-30.949 0,-17.09 13.86,-30.961 30.957,-30.961 h 41.278 V 451.461 c 0,-17.102 13.855,-30.961 30.946,-30.961 17.1,0 30.96,13.859 30.96,30.961 V 647.5 h 41.28 c 17.09,0 30.95,13.871 30.95,30.961 0,17.098 -13.86,30.949 -30.95,30.949"
         style="fill:#211d1d;fill-opacity:1;fill-rule:nonzero;stroke:none"
         id="path46" />
      <path
         d="m 736.266,1531.29 c 0.304,-0.96 0.636,-1.92 1.031,-2.85 0.394,-0.93 0.824,-1.86 1.301,-2.75 0.457,-0.89 0.992,-1.75 1.547,-2.59 0.558,-0.85 1.156,-1.67 1.793,-2.45 0.64,-0.78 1.343,-1.54 2.046,-2.26 0.723,-0.72 1.485,-1.41 2.27,-2.04 0.781,-0.65 1.59,-1.24 2.434,-1.8 0.847,-0.56 1.71,-1.09 2.601,-1.57 0.883,-0.47 1.816,-0.91 2.742,-1.28 0.93,-0.39 1.903,-0.74 2.848,-1.03 0.973,-0.29 1.965,-0.53 2.957,-0.74 0.988,-0.21 2,-0.35 2.984,-0.46 1.02,-0.1 2.047,-0.14 3.059,-0.14 1.012,0 2.043,0.04 3.031,0.14 1.012,0.11 2.024,0.25 3.016,0.46 0.988,0.21 1.98,0.45 2.929,0.74 0.969,0.29 1.942,0.64 2.872,1.03 0.925,0.37 1.836,0.81 2.722,1.28 0.891,0.48 1.774,1.01 2.598,1.57 0.848,0.56 1.676,1.15 2.457,1.8 0.785,0.63 1.547,1.32 2.269,2.04 0.704,0.72 1.383,1.48 2.047,2.26 0.614,0.78 1.235,1.6 1.789,2.45 0.559,0.84 1.079,1.7 1.551,2.59 0.477,0.89 0.906,1.82 1.305,2.75 0.39,0.93 0.723,1.89 1.027,2.85 0.289,0.97 0.539,1.95 0.742,2.95 0.188,0.98 0.352,2 0.454,2.99 0.105,1.01 0.148,2.04 0.148,3.05 0,1.02 -0.043,2.02 -0.148,3.04 -0.102,1.01 -0.266,2.02 -0.454,3.01 -0.203,0.99 -0.453,1.96 -0.742,2.93 -0.304,0.97 -0.637,1.92 -1.027,2.85 -0.399,0.93 -0.828,1.85 -1.305,2.74 -0.472,0.89 -0.992,1.78 -1.551,2.6 -0.554,0.85 -1.175,1.67 -1.789,2.46 -0.664,0.78 -1.343,1.55 -2.047,2.25 -0.722,0.72 -1.484,1.4 -2.269,2.04 -0.781,0.64 -1.609,1.26 -2.457,1.82 -0.824,0.55 -1.707,1.07 -2.598,1.55 -0.886,0.47 -1.797,0.91 -2.722,1.3 -0.93,0.37 -1.903,0.72 -2.872,1 -0.949,0.32 -1.941,0.56 -2.929,0.75 -0.992,0.21 -2.004,0.35 -3.016,0.45 -2,0.21 -4.062,0.21 -6.09,0 -0.984,-0.1 -1.996,-0.24 -2.984,-0.45 -0.992,-0.19 -1.984,-0.43 -2.957,-0.75 -0.945,-0.28 -1.918,-0.63 -2.848,-1 -0.926,-0.39 -1.859,-0.83 -2.742,-1.3 -0.891,-0.48 -1.754,-1 -2.601,-1.55 -0.844,-0.56 -1.653,-1.18 -2.434,-1.82 -0.785,-0.64 -1.547,-1.32 -2.27,-2.04 -0.703,-0.7 -1.406,-1.47 -2.046,-2.25 -0.637,-0.79 -1.235,-1.61 -1.793,-2.46 -0.555,-0.82 -1.09,-1.71 -1.547,-2.6 -0.477,-0.89 -0.907,-1.81 -1.301,-2.74 -0.395,-0.93 -0.727,-1.88 -1.031,-2.85 -0.289,-0.97 -0.539,-1.94 -0.743,-2.93 -0.187,-0.99 -0.351,-2 -0.457,-3.01 -0.101,-1.02 -0.144,-2.02 -0.144,-3.04 0,-1.01 0.043,-2.04 0.144,-3.05 0.106,-0.99 0.27,-2.01 0.457,-2.99 0.204,-1 0.454,-1.98 0.743,-2.95"
         style="fill:#211d1d;fill-opacity:1;fill-rule:nonzero;stroke:none"
         id="path48" />
      <path
         d="m 946.449,1597.03 c 0,48.36 -39.344,87.71 -87.703,87.71 -0.738,0 -1.457,-0.06 -2.18,-0.11 h -90.687 c -17.102,0 -30.957,-13.86 -30.957,-30.96 0,-17.1 13.855,-30.96 30.957,-30.96 h 92.867 c 0.363,0 0.723,0.04 1.082,0.06 13.723,-0.57 24.715,-11.88 24.715,-25.74 0,-14.23 -11.574,-25.8 -25.797,-25.8 -17.101,0 -30.957,-13.86 -30.957,-30.96 0,-17.09 13.856,-30.94 30.957,-30.94 14.223,0 25.797,-11.58 25.797,-25.8 0,-14.22 -11.574,-25.8 -25.797,-25.8 h -92.867 c -17.102,0 -30.957,-13.86 -30.957,-30.95 0,-17.1 13.855,-30.96 30.957,-30.96 h 92.867 c 48.359,0 87.703,39.35 87.703,87.71 0,21.63 -7.886,41.44 -20.914,56.74 13.028,15.32 20.914,35.13 20.914,56.76"
         style="fill:#211d1d;fill-opacity:1;fill-rule:nonzero;stroke:none"
         id="path50" />
      <path
         d="m 444.902,1684.74 c -56.898,0 -103.183,-46.29 -103.183,-103.19 v -154.77 c 0,-17.1 13.855,-30.96 30.953,-30.96 17.098,0 30.957,13.86 30.957,30.96 v 154.77 c 0,22.76 18.516,41.27 41.273,41.27 22.758,0 41.274,-18.51 41.274,-41.27 v -154.77 c 0,-17.1 13.859,-30.96 30.953,-30.96 17.101,0 30.957,13.86 30.957,30.96 v 154.77 c 0,56.9 -46.289,103.19 -103.184,103.19"
         style="fill:#211d1d;fill-opacity:1;fill-rule:nonzero;stroke:none"
         id="path52" />
      <path
         d="m 444.902,1499 c -17.093,0 -30.957,-13.85 -30.957,-30.95 0,-17.09 13.864,-30.96 30.957,-30.96 17.094,0 30.953,13.87 30.953,30.96 0,17.1 -13.859,30.95 -30.953,30.95"
         style="fill:#211d1d;fill-opacity:1;fill-rule:nonzero;stroke:none"
         id="path54" />
      <path
         d="m 1356.05,1507.04 c -14.54,8.99 -33.62,4.47 -42.6,-10.07 -15.18,-24.57 -41.46,-39.24 -70.3,-39.24 -45.51,0 -82.54,37.04 -82.54,82.54 0,45.52 37.03,82.55 82.54,82.55 28.84,0 55.12,-14.67 70.3,-39.24 8.98,-14.55 28.06,-19.05 42.6,-10.06 14.55,8.98 19.05,28.06 10.07,42.6 -26.55,42.96 -72.52,68.62 -122.97,68.62 -79.65,0 -144.46,-64.81 -144.46,-144.47 0,-79.65 64.81,-144.45 144.46,-144.45 50.45,0 96.42,25.64 122.97,68.61 8.98,14.54 4.48,33.63 -10.07,42.61"
         style="fill:#211d1d;fill-opacity:1;fill-rule:nonzero;stroke:none"
         id="path56" />
      <path
         d="m 3619.658,2519.4077 c -0.74,0 -1.46,-0.06 -2.18,-0.11 h -70.06 c -17.09,0 -30.95,-13.86 -30.95,-30.96 0,-17.1 13.86,-30.96 30.95,-30.96 h 72.24 c 0.48,0 0.96,0.05 1.44,0.08 44.85,-0.78 81.1,-37.48 81.1,-82.52 0,-45.03 -36.25,-81.73 -81.1,-82.51 -0.48,0.03 -0.96,0.08 -1.44,0.08 h -72.24 c -17.09,0 -30.95,-13.86 -30.95,-30.96 0,-17.09 13.86,-30.95 30.95,-30.95 h 70.06 c 0.72,-0.05 1.44,-0.11 2.18,-0.11 79.65,0 144.45,64.8 144.45,144.45 0,79.66 -64.8,144.47 -144.45,144.47"
         style="fill:#64ccdb;fill-opacity:1;fill-rule:nonzero;stroke:none;stroke-width:5.25;stroke-linecap:round;stroke-linejoin:round;stroke-miterlimit:4;stroke-dasharray:none;stroke-dashoffset:0;stroke-opacity:1;paint-order:stroke markers fill"
         id="path58" />
      <path
         d="m 3204.87,1581.78 c -17.09,0 -30.94,-13.86 -30.94,-30.96 0,-17.1 13.85,-30.96 30.94,-30.96 17.1,0 30.96,13.86 30.96,30.96 0,17.1 -13.86,30.96 -30.96,30.96"
         style="fill:#211d1d;fill-opacity:1;fill-rule:nonzero;stroke:none"
         id="path62" />
      <path
         d="m 3132.65,1684.74 c -17.1,0 -30.96,-13.86 -30.96,-30.96 v -227 c 0,-17.1 13.86,-30.96 30.96,-30.96 17.1,0 30.95,13.86 30.95,30.96 v 227 c 0,17.1 -13.85,30.96 -30.95,30.96"
         style="fill:#211d1d;fill-opacity:1;fill-rule:nonzero;stroke:none"
         id="path64" />
      <path
         d="m 3277.11,1684.74 c -17.1,0 -30.96,-13.86 -30.96,-30.96 v -227 c 0,-17.1 13.86,-30.96 30.96,-30.96 17.09,0 30.95,13.86 30.95,30.96 v 227 c 0,17.1 -13.86,30.96 -30.95,30.96"
         style="fill:#211d1d;fill-opacity:1;fill-rule:nonzero;stroke:none"
         id="path66" />
      <path
         d="m 2427.13,1561.65 c -17.09,0 -30.95,-13.86 -30.95,-30.96 0,-17.1 13.86,-30.95 30.95,-30.95 17.1,0 30.96,13.85 30.96,30.95 0,17.1 -13.86,30.96 -30.96,30.96"
         style="fill:#211d1d;fill-opacity:1;fill-rule:nonzero;stroke:none"
         id="path68" />
      <path
         d="m 2489.04,1684.74 h -144.46 c -17.09,0 -30.95,-13.86 -30.95,-30.96 v -227 c 0,-17.1 13.86,-30.96 30.95,-30.96 17.1,0 30.96,13.86 30.96,30.96 v 196.04 h 113.5 c 17.1,0 30.96,13.87 30.96,30.96 0,17.1 -13.86,30.96 -30.96,30.96"
         style="fill:#211d1d;fill-opacity:1;fill-rule:nonzero;stroke:none"
         id="path70" />
      <path
         d="m 3627.32,1457.73 v 165.09 c 17.1,0 30.96,13.87 30.96,30.96 0,17.1 -13.86,30.96 -30.96,30.96 h -61.9 c -17.1,0 -30.96,-13.86 -30.96,-30.96 0,-17.09 13.86,-30.96 30.96,-30.96 v -165.09 c -17.1,0 -30.96,-13.86 -30.96,-30.95 0,-17.1 13.86,-30.96 30.96,-30.96 h 61.9 c 17.1,0 30.96,13.86 30.96,30.96 0,17.09 -13.86,30.95 -30.96,30.95"
         style="fill:#211d1d;fill-opacity:1;fill-rule:nonzero;stroke:none"
         id="path72" />
      <path
         d="m 2801.56,1511.48 c 0,-17.1 13.86,-30.95 30.96,-30.95 17.1,0 30.96,13.85 30.96,30.95 0,17.1 -13.86,30.96 -30.96,30.96 -17.1,0 -30.96,-13.86 -30.96,-30.96"
         style="fill:#211d1d;fill-opacity:1;fill-rule:nonzero;stroke:none"
         id="path74" />
      <path
         d="m 2915.07,1542.44 c -17.1,0 -30.96,-13.86 -30.96,-30.96 v -21.17 c -15.57,-20.52 -39.56,-32.58 -65.67,-32.58 -45.52,0 -82.55,37.04 -82.55,82.54 0,45.52 37.03,82.55 82.55,82.55 28.84,0 55.11,-14.67 70.29,-39.24 8.98,-14.55 28.06,-19.05 42.61,-10.06 14.54,8.98 19.05,28.05 10.06,42.6 -26.54,42.96 -72.51,68.62 -122.96,68.62 -79.66,0 -144.47,-64.81 -144.47,-144.47 0,-79.65 64.81,-144.45 144.47,-144.45 24.95,0 48.79,6.28 69.74,17.81 5.33,-9.33 15.36,-15.65 26.89,-15.65 17.09,0 30.96,13.87 30.96,30.96 v 82.54 c 0,17.1 -13.87,30.96 -30.96,30.96"
         style="fill:#211d1d;fill-opacity:1;fill-rule:nonzero;stroke:none"
         id="path76" />
      <path
         d="m 3174.09,970.328 c -45.52,0 -82.55,37.022 -82.55,82.542 0,45.52 37.03,82.55 82.55,82.55 45.52,0 82.55,-37.03 82.55,-82.55 0,-45.52 -37.03,-82.542 -82.55,-82.542 z m 124.44,9.293 c 12.7,21.489 20.02,46.529 20.02,73.249 0,79.66 -64.8,144.46 -144.46,144.46 -79.65,0 -144.45,-64.8 -144.45,-144.46 0,-79.651 64.8,-144.448 144.45,-144.448 30.76,0 59.28,9.687 82.74,26.137 5.67,-6.739 14.16,-11.02 23.66,-11.02 17.09,0 30.96,13.859 30.96,30.949 0,10.364 -5.11,19.5 -12.92,25.133"
         style="fill:#211d1d;fill-opacity:1;fill-rule:nonzero;stroke:none"
         id="path78" />
      <path
         d="m 2386.04,1135.42 c -45.52,0 -82.55,-37.03 -82.55,-82.55 0,-45.52 37.03,-82.542 82.55,-82.542 45.5,0 82.54,37.022 82.54,82.542 0,45.52 -37.04,82.55 -82.54,82.55 z m 0,-226.998 c -79.66,0 -144.47,64.797 -144.47,144.448 0,79.66 64.81,144.46 144.47,144.46 79.64,0 144.45,-64.8 144.45,-144.46 0,-79.651 -64.81,-144.448 -144.45,-144.448"
         style="fill:#211d1d;fill-opacity:1;fill-rule:nonzero;stroke:none"
         id="path80" />
      <path
         d="m 2810.6,1197.33 c -17.09,0 -30.96,-13.85 -30.96,-30.95 0,-17.1 13.87,-30.96 30.96,-30.96 14.22,0 25.8,-11.57 25.8,-25.79 0,-14.23 -11.58,-25.8 -25.8,-25.8 -17.09,0 -30.96,-13.86 -30.96,-30.96 0,-17.09 13.87,-30.95 30.96,-30.95 48.36,0 87.7,39.35 87.7,87.71 0,48.36 -39.34,87.7 -87.7,87.7"
         style="fill:#211d1d;fill-opacity:1;fill-rule:nonzero;stroke:none"
         id="path82" />
      <path
         d="m 2728.05,1197.33 c -17.09,0 -30.96,-13.85 -30.96,-30.95 V 939.371 c 0,-17.09 13.87,-30.949 30.96,-30.949 17.1,0 30.95,13.859 30.95,30.949 v 227.009 c 0,17.1 -13.85,30.95 -30.95,30.95"
         style="fill:#211d1d;fill-opacity:1;fill-rule:nonzero;stroke:none"
         id="path84" />
      <path
         d="m 888.215,1135.42 c 17.098,0 30.957,13.87 30.957,30.96 0,17.1 -13.859,30.95 -30.957,30.95 -17.098,0 -30.953,-13.85 -30.953,-30.95 0,-17.09 13.855,-30.96 30.953,-30.96"
         style="fill:#211d1d;fill-opacity:1;fill-rule:nonzero;stroke:none"
         id="path86" />
      <path
         d="m 788.965,1135.09 v 31.29 c 0,17.1 -13.863,30.95 -30.957,30.95 -17.094,0 -30.953,-13.85 -30.953,-30.95 V 939.371 c 0,-17.09 13.859,-30.949 30.953,-30.949 17.094,0 30.957,13.859 30.957,30.949 v 87.779 l 73.89,-105.529 c 6.024,-8.601 15.625,-13.199 25.387,-13.199 6.129,0 12.324,1.808 17.727,5.59 14.004,9.808 17.41,29.109 7.601,43.117 L 788.965,1135.09"
         style="fill:#211d1d;fill-opacity:1;fill-rule:nonzero;stroke:none"
         id="path88" />
      <path
         d="m 3488.2533,2488.4548 c 1.96,11.44 -2.58,23.52 -12.72,30.62 -14.01,9.81 -33.31,6.41 -43.12,-7.6 l -58.81,-84 -58.82,84 c -9.8,14.01 -29.11,17.41 -43.11,7.6 -10.14,-7.1 -14.69,-19.18 -12.72,-30.62 -0.29,-1.72 -0.48,-3.47 -0.48,-5.28 v -226.998 c 0,-17.102 13.86,-30.961 30.95,-30.961 17.1,0 30.96,13.859 30.96,30.961 v 139.368 l 27.86,-39.79 c 0.09,-0.13 0.19,-0.23 0.28,-0.35 0.55,-0.76 1.14,-1.49 1.76,-2.21 0.19,-0.21 0.36,-0.44 0.56,-0.65 0.74,-0.81 1.53,-1.59 2.38,-2.33 0.25,-0.22 0.52,-0.42 0.78,-0.63 0.6,-0.49 1.2,-0.98 1.84,-1.44 0.08,-0.04 0.16,-0.09 0.24,-0.14 0.27,-0.19 0.55,-0.35 0.82,-0.53 0.72,-0.46 1.44,-0.89 2.18,-1.29 0.23,-0.12 0.44,-0.23 0.67,-0.35 0.97,-0.49 1.96,-0.92 2.96,-1.29 0.16,-0.07 0.32,-0.12 0.48,-0.18 1.04,-0.37 2.08,-0.69 3.13,-0.94 0.03,0 0.06,-0.01 0.09,-0.02 1.1,-0.27 2.22,-0.46 3.33,-0.6 0.18,-0.02 0.35,-0.04 0.53,-0.06 1.1,-0.11 2.2,-0.19 3.3,-0.19 0.01,0 0.02,0 0.03,0 0.01,0 0.02,0 0.02,0 1.11,0 2.21,0.08 3.3,0.19 0.18,0.02 0.36,0.04 0.53,0.06 1.12,0.14 2.23,0.33 3.33,0.6 0.04,0.01 0.07,0.02 0.1,0.03 1.05,0.25 2.09,0.56 3.11,0.93 0.17,0.06 0.34,0.11 0.5,0.18 1,0.37 1.99,0.8 2.96,1.29 0.23,0.12 0.44,0.23 0.66,0.35 0.74,0.4 1.47,0.83 2.19,1.29 0.27,0.18 0.54,0.34 0.81,0.53 0.08,0.05 0.16,0.1 0.24,0.14 0.65,0.46 1.25,0.95 1.85,1.45 0.26,0.2 0.53,0.4 0.77,0.61 0.85,0.75 1.64,1.53 2.39,2.34 0.19,0.21 0.37,0.44 0.55,0.65 0.63,0.72 1.22,1.45 1.76,2.21 0.09,0.12 0.2,0.22 0.29,0.35 l 27.86,39.79 v -139.368 c 0,-17.102 13.85,-30.961 30.95,-30.961 17.1,0 30.96,13.859 30.96,30.961 v 226.998 c 0,1.81 -0.19,3.56 -0.48,5.28"
         style="fill:#64ccdb;fill-opacity:1;fill-rule:nonzero;stroke:none;stroke-width:5.25;stroke-linecap:round;stroke-linejoin:round;stroke-miterlimit:4;stroke-dasharray:none;stroke-dashoffset:0;stroke-opacity:1;paint-order:stroke markers fill"
         id="path90" />
      <path
         d="m 462.828,1197.33 h -61.91 c -17.094,0 -30.957,-13.85 -30.957,-30.95 0,-17.09 13.863,-30.96 30.957,-30.96 h 30.953 V 996.121 c 0,-14.223 -11.566,-25.793 -25.797,-25.793 -14.222,0 -25.797,11.57 -25.797,25.793 0,17.099 -13.855,30.959 -30.953,30.959 -17.097,0 -30.957,-13.86 -30.957,-30.959 0,-48.359 39.348,-87.699 87.707,-87.699 48.364,0 87.711,39.34 87.711,87.699 v 170.259 c 0,17.1 -13.863,30.95 -30.957,30.95"
         style="fill:#211d1d;fill-opacity:1;fill-rule:nonzero;stroke:none"
         id="path92" />
      <path
         d="m 1335.5,1001.4 c 0,17.09 -13.86,30.94 -30.96,30.94 -17.09,0 -30.95,-13.85 -30.95,-30.94 v -31.072 h -82.55 v 196.052 c 0,17.1 -13.86,30.95 -30.96,30.95 -17.09,0 -30.95,-13.85 -30.95,-30.95 V 939.371 c 0,-17.09 13.86,-30.949 30.95,-30.949 h 144.46 c 17.1,0 30.96,13.859 30.96,30.949 0,0.02 -0.01,0.027 -0.01,0.051 0,0.019 0.01,0.039 0.01,0.058 v 61.92"
         style="fill:#211d1d;fill-opacity:1;fill-rule:nonzero;stroke:none"
         id="path94" />
      <path
         d="m 1924.33,1197.33 c -17.09,0 -30.95,-13.85 -30.95,-30.95 V 939.371 c 0,-17.09 13.86,-30.949 30.95,-30.949 17.1,0 30.96,13.859 30.96,30.949 v 227.009 c 0,17.1 -13.86,30.95 -30.96,30.95"
         style="fill:#211d1d;fill-opacity:1;fill-rule:nonzero;stroke:none"
         id="path96" />
      <path
         d="m 2099.75,1166.38 c 0,17.1 -13.86,30.95 -30.96,30.95 -17.09,0 -30.96,-13.85 -30.96,-30.95 v -120.71 l -8.96,14.1 c -9.17,14.42 -28.31,18.67 -42.74,9.49 -14.42,-9.18 -18.67,-28.31 -9.49,-42.74 l 66.04,-103.77 c 0.08,-0.121 0.17,-0.25 0.26,-0.379 0.15,-0.223 0.29,-0.441 0.45,-0.66 0.44,-0.641 0.9,-1.25 1.38,-1.84 0.05,-0.082 0.11,-0.16 0.18,-0.242 0.6,-0.707 1.21,-1.391 1.86,-2.039 0.07,-0.078 0.16,-0.16 0.24,-0.238 1.34,-1.313 2.77,-2.512 4.3,-3.543 0.11,-0.079 0.22,-0.149 0.34,-0.227 0.72,-0.48 1.46,-0.934 2.23,-1.352 0.05,-0.031 0.1,-0.058 0.15,-0.089 0.75,-0.411 1.53,-0.77 2.31,-1.11 0.25,-0.109 0.5,-0.222 0.74,-0.32 0.76,-0.313 1.53,-0.59 2.3,-0.84 0.22,-0.07 0.44,-0.121 0.65,-0.18 0.66,-0.203 1.33,-0.359 2,-0.519 0.25,-0.063 0.51,-0.121 0.76,-0.172 0.85,-0.16 1.7,-0.289 2.56,-0.391 0.19,-0.019 0.38,-0.039 0.57,-0.05 0.94,-0.079 1.9,-0.137 2.86,-0.137 0.96,0 1.91,0.058 2.87,0.137 0.19,0.023 0.37,0.043 0.56,0.062 0.88,0.098 1.75,0.231 2.62,0.399 0.07,0.011 0.14,0.019 0.21,0.039 0.89,0.191 1.77,0.41 2.64,0.691 0.25,0.059 0.49,0.148 0.74,0.23 0.62,0.211 1.25,0.43 1.86,0.68 0.27,0.11 0.54,0.211 0.8,0.328 0.79,0.344 1.57,0.711 2.34,1.121 0.18,0.11 0.37,0.223 0.55,0.332 0.47,0.27 0.94,0.528 1.4,0.821 0.1,0.058 0.19,0.136 0.28,0.199 0.51,0.328 1,0.687 1.5,1.051 0.35,0.269 0.71,0.519 1.05,0.789 0.38,0.32 0.74,0.648 1.11,0.98 0.41,0.36 0.82,0.707 1.21,1.09 0.26,0.258 0.49,0.539 0.75,0.809 0.44,0.468 0.89,0.929 1.29,1.422 0.2,0.238 0.39,0.507 0.58,0.757 0.42,0.539 0.83,1.071 1.21,1.61 0.23,0.332 0.42,0.691 0.64,1.031 0.3,0.488 0.61,0.969 0.9,1.48 0.27,0.5 0.51,1.02 0.75,1.54 0.18,0.371 0.37,0.73 0.54,1.101 0.26,0.598 0.48,1.238 0.7,1.859 0.11,0.321 0.23,0.61 0.34,0.918 0.19,0.614 0.34,1.223 0.5,1.844 0.09,0.367 0.2,0.719 0.28,1.086 0.11,0.524 0.19,1.063 0.28,1.594 0.07,0.488 0.16,0.976 0.22,1.469 0.05,0.429 0.07,0.871 0.1,1.308 0.04,0.61 0.08,1.223 0.09,1.821 0,0.121 0.02,0.242 0.02,0.351 v 227.009"
         style="fill:#211d1d;fill-opacity:1;fill-rule:nonzero;stroke:none"
         id="path98" />
      <path
         d="m 3681.63,1094.15 c 0,56.89 -46.29,103.18 -103.18,103.18 h -82.55 c -17.1,0 -30.96,-13.85 -30.96,-30.95 V 939.371 c 0,-17.09 13.86,-30.949 30.96,-30.949 17.1,0 30.96,13.859 30.96,30.949 v 196.049 h 51.59 c 22.75,0 41.27,-18.52 41.27,-41.27 0,-22.76 -18.52,-41.28 -41.27,-41.28 -17.1,0 -30.96,-13.86 -30.96,-30.95 0,-17.1 13.86,-30.951 30.96,-30.951 56.89,0 103.18,46.291 103.18,103.181"
         style="fill:#211d1d;fill-opacity:1;fill-rule:nonzero;stroke:none"
         id="path100" />
      <path
         d="m 3650.67,970.328 c -17.1,0 -30.95,-13.867 -30.95,-30.957 0,-17.09 13.85,-30.949 30.95,-30.949 17.1,0 30.96,13.859 30.96,30.949 0,17.09 -13.86,30.957 -30.96,30.957"
         style="fill:#211d1d;fill-opacity:1;fill-rule:nonzero;stroke:none"
         id="path102" />
      <path
         d="m 2025.58,1395.82 c -79.66,0 -144.46,64.8 -144.46,144.45 0,79.66 64.8,144.47 144.46,144.47 50.46,0 96.42,-25.65 122.96,-68.62 4.43,-7.16 5.75,-15.8 3.66,-23.95 -2.09,-8.15 -7.41,-15.1 -14.72,-19.25 l -105.07,-59.57 c -14.87,-8.43 -33.76,-3.21 -42.2,11.66 -8.43,14.87 -3.21,33.76 11.67,42.2 l 71.42,40.5 c -13.69,9.72 -30.24,15.11 -47.72,15.11 -45.52,0 -82.55,-37.03 -82.55,-82.55 0,-45.5 37.03,-82.54 82.55,-82.54 28.83,0 55.11,14.67 70.3,39.24 8.97,14.54 28.06,19.06 42.6,10.07 14.55,-8.98 19.05,-28.07 10.06,-42.61 -26.54,-42.97 -72.5,-68.61 -122.96,-68.61"
         style="fill:#211d1d;fill-opacity:1;fill-rule:nonzero;stroke:none"
         id="path104" />
      <path
         d="m 1632.92,2533.73 c 28.73,0 52.03,23.29 52.03,52.03 0,28.73 -23.3,52.03 -52.03,52.03 -28.74,0 -52.03,-23.3 -52.03,-52.03 0,-28.74 23.29,-52.03 52.03,-52.03"
         style="fill:#211d1d;fill-opacity:1;fill-rule:nonzero;stroke:none"
         id="path106" />
      <path
         d="m 1879.64,2630.58 c -24.88,14.38 -56.7,5.87 -71.08,-19.01 l -220.54,-381.55 c -14.38,-24.87 -5.87,-56.7 19.01,-71.07 8.19,-4.75 17.15,-7 25.99,-7 17.97,0 35.45,9.32 45.09,26 l 220.54,381.55 c 14.38,24.87 5.87,56.7 -19.01,71.08"
         style="fill:#211d1d;fill-opacity:1;fill-rule:nonzero;stroke:none"
         id="path108" />
      <path
         d="m 1439.77,2637.67 h -242.81 c -28.73,0 -52.03,-23.3 -52.03,-52.03 0,-28.74 23.3,-52.03 52.03,-52.03 h 69.37 V 2204.1 c 0,-28.74 23.3,-52.03 52.03,-52.03 28.74,0 52.03,23.29 52.03,52.03 v 329.51 h 69.38 c 28.73,0 52.02,23.29 52.02,52.03 0,28.73 -23.29,52.03 -52.02,52.03"
         style="fill:#211d1d;fill-opacity:1;fill-rule:nonzero;stroke:none"
         id="path110" />
      <path
         d="m 2173.41,2637.67 c -28.73,0 -52.03,-23.3 -52.03,-52.03 0,-28.74 23.3,-52.03 52.03,-52.03 23.9,0 43.36,-19.45 43.36,-43.36 0,-23.9 -19.46,-43.36 -43.36,-43.36 -28.73,0 -52.03,-23.29 -52.03,-52.02 0,-28.74 23.3,-52.03 52.03,-52.03 81.29,0 147.41,66.13 147.41,147.41 0,81.29 -66.12,147.42 -147.41,147.42"
         style="fill:#211d1d;fill-opacity:1;fill-rule:nonzero;stroke:none"
         id="path112" />
      <path
         d="m 2034.67,2637.67 c -28.74,0 -52.03,-23.3 -52.03,-52.03 V 2204.1 c 0,-28.74 23.29,-52.03 52.03,-52.03 28.73,0 52.02,23.29 52.02,52.03 v 381.54 c 0,28.73 -23.29,52.03 -52.02,52.03"
         style="fill:#211d1d;fill-opacity:1;fill-rule:nonzero;stroke:none"
         id="path114" />
      <path
         d="m 2641.34,2151.95 c -133.91,0 -242.86,108.94 -242.86,242.86 0,133.92 108.95,242.86 242.86,242.86 84.82,0 162.11,-43.12 206.73,-115.35 7.43,-12.03 9.64,-26.57 6.14,-40.27 -3.51,-13.7 -12.44,-25.38 -24.75,-32.36 l -176.64,-100.15 c -25,-14.17 -56.76,-5.4 -70.94,19.6 -14.17,25 -5.4,56.76 19.61,70.94 l 120.09,68.09 c -23.04,16.35 -50.85,25.41 -80.24,25.41 -76.52,0 -138.77,-62.25 -138.77,-138.77 0,-76.52 62.25,-138.78 138.77,-138.78 48.47,0 92.66,24.66 118.18,65.98 15.1,24.45 47.18,32.03 71.62,16.92 24.46,-15.11 32.03,-47.18 16.93,-71.63 -44.62,-72.23 -121.91,-115.35 -206.73,-115.35"
         style="fill:#211d1d;fill-opacity:1;fill-rule:nonzero;stroke:none"
         id="path116" />
      <path
         d="M 1215.3,3428.1 H 972.5 c -28.734,0 -52.027,-23.3 -52.027,-52.03 0,-28.73 23.293,-52.03 52.027,-52.03 h 69.38 v -329.52 c 0,-28.73 23.29,-52.03 52.02,-52.03 28.74,0 52.03,23.3 52.03,52.03 v 329.52 h 69.37 c 28.74,0 52.03,23.3 52.03,52.03 0,28.73 -23.29,52.03 -52.03,52.03"
         style="fill:#211d1d;fill-opacity:1;fill-rule:nonzero;stroke:none"
         id="path118" />
      <path
         d="m 2764.84,3129.43 c -24.44,15.1 -56.5,7.53 -71.61,-16.92 -25.52,-41.3 -69.69,-65.96 -118.15,-65.96 -76.51,0 -138.74,62.24 -138.74,138.74 0,76.51 62.23,138.75 138.74,138.75 48.46,0 92.63,-24.66 118.15,-65.96 15.11,-24.45 47.16,-32.02 71.61,-16.92 24.45,15.11 32.03,47.16 16.92,71.61 -44.62,72.21 -121.88,115.33 -206.68,115.33 -133.88,0 -242.8,-108.92 -242.8,-242.81 0,-133.88 108.92,-242.8 242.8,-242.8 84.8,0 162.06,43.12 206.68,115.33 15.11,24.44 7.53,56.5 -16.92,71.61"
         style="fill:#211d1d;fill-opacity:1;fill-rule:nonzero;stroke:none"
         id="path120" />
      <path
         d="m 3030.13,3046.55 v 277.49 c 28.73,0 52.02,23.3 52.02,52.03 0,28.73 -23.29,52.03 -52.02,52.03 h -104.07 c -28.73,0 -52.03,-23.3 -52.03,-52.03 0,-28.73 23.3,-52.03 52.03,-52.03 v -277.49 c -28.73,0 -52.03,-23.29 -52.03,-52.03 0,-28.73 23.3,-52.03 52.03,-52.03 h 104.07 c 28.73,0 52.02,23.3 52.02,52.03 0,28.74 -23.29,52.03 -52.02,52.03"
         style="fill:#211d1d;fill-opacity:1;fill-rule:nonzero;stroke:none"
         id="path122" />
      <path
         d="m 3565.25,3098.77 c 0,28.73 -23.3,52.02 -52.03,52.02 -28.74,0 -52.03,-23.29 -52.03,-52.02 v -52.22 h -138.74 v 329.52 c 0,28.73 -23.3,52.03 -52.03,52.03 -28.73,0 -52.03,-23.3 -52.03,-52.03 v -381.55 c 0,-28.73 23.3,-52.03 52.03,-52.03 h 242.8 c 28.73,0 52.03,23.3 52.03,52.03 0,0.03 -0.01,0.06 -0.01,0.09 0,0.03 0.01,0.06 0.01,0.1 v 104.06"
         style="fill:#211d1d;fill-opacity:1;fill-rule:nonzero;stroke:none"
         id="path124" />
      <path
         d="m 1921.58,3428.1 c -28.73,0 -52.03,-23.3 -52.03,-52.03 v -381.54 c 0,-28.74 23.3,-52.03 52.03,-52.03 28.73,0 52.03,23.29 52.03,52.03 v 381.54 c 0,28.73 -23.3,52.03 -52.03,52.03"
         style="fill:#211d1d;fill-opacity:1;fill-rule:nonzero;stroke:none"
         id="path126" />
      <path
         d="m 2216.41,3376.07 c 0,28.73 -23.29,52.03 -52.03,52.03 -28.74,0 -52.03,-23.3 -52.03,-52.03 v -202.88 l -15.06,23.69 c -15.43,24.23 -47.59,31.38 -71.84,15.96 -24.24,-15.43 -31.38,-47.59 -15.96,-71.83 l 111,-174.42 c 0.14,-0.22 0.29,-0.42 0.44,-0.64 0.24,-0.38 0.5,-0.74 0.75,-1.11 0.74,-1.07 1.51,-2.1 2.31,-3.09 0.11,-0.13 0.21,-0.28 0.33,-0.41 0.98,-1.2 2.03,-2.34 3.11,-3.43 0.14,-0.14 0.28,-0.27 0.41,-0.4 2.25,-2.22 4.66,-4.21 7.22,-5.95 0.18,-0.13 0.38,-0.26 0.57,-0.39 1.23,-0.81 2.48,-1.58 3.75,-2.27 0.09,-0.05 0.17,-0.11 0.26,-0.15 1.27,-0.69 2.57,-1.3 3.89,-1.87 0.41,-0.19 0.82,-0.36 1.24,-0.53 1.27,-0.52 2.56,-1 3.87,-1.42 0.36,-0.11 0.73,-0.2 1.09,-0.31 1.11,-0.32 2.22,-0.61 3.35,-0.86 0.43,-0.09 0.86,-0.2 1.3,-0.28 1.41,-0.28 2.85,-0.5 4.28,-0.65 0.32,-0.04 0.64,-0.07 0.96,-0.1 1.6,-0.14 3.2,-0.24 4.81,-0.24 1.61,0 3.22,0.1 4.83,0.25 0.31,0.03 0.62,0.06 0.94,0.1 1.46,0.16 2.93,0.38 4.4,0.67 0.12,0.03 0.22,0.04 0.34,0.06 1.5,0.31 2.98,0.7 4.46,1.15 0.41,0.12 0.81,0.27 1.23,0.4 1.05,0.34 2.09,0.72 3.13,1.14 0.45,0.19 0.91,0.36 1.35,0.56 1.32,0.57 2.63,1.19 3.91,1.88 0.33,0.17 0.63,0.37 0.94,0.55 0.79,0.45 1.58,0.89 2.35,1.38 0.17,0.11 0.32,0.23 0.48,0.34 0.86,0.56 1.68,1.16 2.5,1.77 0.6,0.44 1.2,0.87 1.78,1.33 0.64,0.52 1.25,1.08 1.87,1.63 0.68,0.61 1.37,1.2 2.02,1.84 0.44,0.44 0.85,0.91 1.28,1.37 0.73,0.78 1.48,1.56 2.16,2.38 0.35,0.41 0.65,0.86 0.98,1.28 0.69,0.9 1.4,1.78 2.02,2.71 0.38,0.55 0.72,1.15 1.08,1.72 0.51,0.83 1.04,1.64 1.51,2.49 0.46,0.84 0.85,1.72 1.27,2.58 0.29,0.62 0.62,1.23 0.9,1.86 0.44,1.02 0.81,2.08 1.18,3.14 0.19,0.51 0.4,1.02 0.57,1.54 0.32,1.01 0.57,2.05 0.84,3.09 0.15,0.61 0.34,1.21 0.47,1.83 0.19,0.88 0.32,1.78 0.46,2.68 0.14,0.82 0.29,1.63 0.37,2.46 0.09,0.72 0.12,1.47 0.17,2.2 0.08,1.02 0.15,2.05 0.16,3.07 0.01,0.2 0.03,0.39 0.03,0.59 v 381.54"
         style="fill:#211d1d;fill-opacity:1;fill-rule:nonzero;stroke:none"
         id="path128" />
      <path
         d="m 1550.06,2942.43 c -133.91,0 -242.86,108.95 -242.86,242.86 0,133.92 108.95,242.86 242.86,242.86 84.82,0 162.1,-43.11 206.73,-115.35 7.43,-12.03 9.65,-26.57 6.14,-40.26 -3.51,-13.7 -12.44,-25.39 -24.75,-32.36 l -176.63,-100.16 c -25,-14.16 -56.76,-5.39 -70.94,19.61 -14.18,25 -5.4,56.76 19.6,70.94 l 120.09,68.09 c -23.03,16.34 -50.85,25.41 -80.24,25.41 -76.52,0 -138.78,-62.25 -138.78,-138.78 0,-76.52 62.26,-138.77 138.78,-138.77 48.48,0 92.66,24.66 118.18,65.97 15.1,24.45 47.18,32.03 71.63,16.92 24.45,-15.1 32.03,-47.18 16.92,-71.63 -44.63,-72.22 -121.91,-115.35 -206.73,-115.35"
         style="fill:#211d1d;fill-opacity:1;fill-rule:nonzero;stroke:none"
         id="path130" />
      <path
         d="m 801.492,3277.91 c 28.738,0 52.031,23.29 52.031,52.03 0,28.73 -23.293,52.02 -52.031,52.02 -28.726,0 -52.023,-23.29 -52.023,-52.02 0,-28.74 23.297,-52.03 52.023,-52.03"
         style="fill:#211d1d;fill-opacity:1;fill-rule:nonzero;stroke:none"
         id="path132" />
      <path
         d="m 720.023,3236.46 c -0.218,0 -0.437,0 -0.66,-0.01 l -136.613,-1.73 c -24.742,0.15 -44.824,20.32 -44.824,45.09 0,24.87 20.226,45.1 45.086,45.1 h 66.351 c 0.688,-0.03 1.36,-0.11 2.055,-0.11 28.734,0 52.023,23.3 52.023,52.03 0,28.74 -23.289,52.03 -52.023,52.03 v 0.1 h -68.406 c -82.235,0 -149.145,-66.91 -149.145,-149.15 0,-82.24 66.91,-149.15 149.145,-149.15 0.218,0 0.445,0 0.66,0.01 l 136.617,1.73 c 23.781,-0.15 43.094,-19.54 43.094,-43.36 0,-23.91 -19.453,-43.36 -43.36,-43.36 h -68.605 c -28.738,0 -52.031,-23.29 -52.031,-52.03 0,-28.73 23.293,-52.02 52.031,-52.02 h 68.605 c 81.286,0 147.418,66.12 147.418,147.41 0,81.29 -66.132,147.42 -147.418,147.42"
         style="fill:#211d1d;fill-opacity:1;fill-rule:nonzero;stroke:none"
         id="path134" />
      <path
         d="m 498.461,2988.62 c 28.734,0 52.031,23.29 52.031,52.02 0,28.74 -23.297,52.04 -52.031,52.04 -28.734,0 -52.031,-23.3 -52.031,-52.04 0,-28.73 23.297,-52.02 52.031,-52.02"
         style="fill:#211d1d;fill-opacity:1;fill-rule:nonzero;stroke:none"
         id="path136" />
    </g>
  </g>
</svg>
