<?xml version="1.0" encoding="UTF-8" standalone="no"?>
<!-- Created with Inkscape (http://www.inkscape.org/) -->

<svg
   version="1.1"
   id="svg2"
   width="86.548584"
   height="68.345337"
   viewBox="0 0 86.548584 68.345337"
   sodipodi:docname="3975529_13653.svg"
   xmlns:inkscape="http://www.inkscape.org/namespaces/inkscape"
   xmlns:sodipodi="http://sodipodi.sourceforge.net/DTD/sodipodi-0.dtd"
   xmlns="http://www.w3.org/2000/svg"
   xmlns:svg="http://www.w3.org/2000/svg">
  <defs
     id="defs6" />
  <sodipodi:namedview
     id="namedview4"
     pagecolor="#ffffff"
     bordercolor="#000000"
     borderopacity="0.25"
     inkscape:showpageshadow="2"
     inkscape:pageopacity="0.0"
     inkscape:pagecheckerboard="0"
     inkscape:deskcolor="#d1d1d1"
     showgrid="false"
     inkscape:zoom="1.6034404"
     inkscape:cx="235.7431"
     inkscape:cy="258.81848"
     inkscape:window-width="1920"
     inkscape:window-height="1009"
     inkscape:window-x="-8"
     inkscape:window-y="-8"
     inkscape:window-maximized="1"
     inkscape:current-layer="g10" />
  <g
     id="g8"
     inkscape:groupmode="layer"
     inkscape:label="ink_ext_XXXXXX"
     transform="matrix(1.3333333,0,0,-1.3333333,-281.01273,211.48001)">
    <g
       id="g10"
       transform="scale(0.1)">
      <path
         d="m 2378.64,1074.99 c -5.02,-0.3 -10.08,-0.48 -15.17,-0.48 5.1,0 10.15,0.18 15.17,0.48"
         style="fill:#ffffff;fill-opacity:1;fill-rule:nonzero;stroke:none"
         id="path350" />
      <path
         d="m 2565.97,1174.43 c -2.27,-4.16 -0.67,-2.72 12.22,17.18 -3.19,-4.93 -6.56,-9.75 -10.09,-14.45 -0.69,-0.93 -1.43,-1.81 -2.13,-2.73"
         style="fill:#4494cc;fill-opacity:1;fill-rule:nonzero;stroke:none"
         id="path352" />
      <path
         d="m 2585.21,1440.37 c -5.92,2.03 -12.22,1.23 -18.13,2.92 -3.49,1.01 -3.36,3.15 -3.35,6.23 0.01,4.12 -3.31,6.28 -6.81,7.68 -5.37,2.16 -9.52,5.59 -12.49,10.55 -2.08,3.44 -9.82,14.91 -13.55,7.03 -3.58,-7.58 -6.92,-14.27 -16.81,-13.9 -8.11,0.3 -14.38,8.02 -14.5,15.88 -0.15,9.54 12.78,9 11.73,19.14 -1.15,11.13 -13.98,17.43 -22.6,22.23 l -5.36,3.93 c 2.82,1.83 10.25,-1.23 12.78,-2.54 5.26,-2.76 12.81,-14.07 19.84,-9.7 7.15,4.42 -7.94,16.41 -11.22,18.05 -3.5,1.75 -8.77,1.36 -11.38,4.56 -2.22,2.73 -2.12,6.92 -3.48,10.08 -3.66,8.52 -15.06,14.38 -23.89,15.96 -6.54,1.16 -15.41,5.08 -16.05,12.51 -2.17,0.81 -4.36,1.55 -6.56,2.28 -7.84,-3.67 -15.16,-8.35 -23.07,-11.89 -3.56,-1.59 -10.34,-5.1 -14.25,-2.53 -6.27,4.12 1.19,16.52 -3.81,21.9 -2.51,2.7 -7.17,1.99 -11.34,1.27 -1.92,-0.33 -3.73,-0.66 -5.17,-0.65 -1.15,0 -5.48,1.44 -6.12,-0.15 -0.56,-1.42 0.84,-3.67 1.38,-4.91 2.12,-4.97 1.73,-9.44 -5.13,-8.45 -5.14,0.74 -9.57,4.83 -12.49,8.92 l -11.28,-4.89 c 3.56,-8.57 -7.52,-7.1 -18.15,-5.63 -8.1,1.12 -15.93,2.23 -16.81,-1.09 -0.65,-2.48 4.03,-5.48 6.08,-5.41 1.39,0.04 4.07,2.79 5.2,1.8 2.5,-2.24 2.64,-8.59 2.89,-11.7 0.04,-0.5 -0.23,-4.59 0.7,-3.72 6.31,5.88 14.31,9.12 20.71,14.88 2.02,1.83 4.19,4.43 6.94,5.15 3.57,0.9 6.98,-2.48 9.25,-4.7 8.29,-8.1 17.68,-20.03 16.38,-32.46 -0.2,-1.87 -1.05,-5.7 -3.7,-5.25 -3.62,0.62 -5.67,7.05 -8,9.42 -4.97,5.03 -18.19,10.78 -22.16,1.38 -2.65,-6.3 6.45,-9.48 10.7,-11.49 1.49,-0.7 4.64,-1.78 5.1,-3.63 0.64,-2.56 -5.44,-4.06 -6.93,-4.26 -8.08,-1.11 -14.08,5.58 -19.66,10.26 -5.17,4.35 -2.48,-4.43 -0.56,-6.65 0.55,-0.62 2.6,-2.26 1.97,-3.26 -1.31,-2.07 -7.44,-1.85 -9.39,-2.03 -12.27,-1.17 -22.55,-4.31 -32.7,-11.5 -6.43,-4.55 -12.33,-9.97 -17.43,-15.96 l -1,-1.21 c -2.32,-9.06 -4.5,-18.63 -8.51,-27.09 -2.19,-4.62 -3.27,-1.93 -3.41,1.9 -0.33,8.73 2.2,19.35 -3.36,26.98 -10.01,13.74 -32.61,-5.86 -40.1,-13.2 -6.04,-5.92 -16.08,-18.01 -8.9,-26.72 7.04,-8.54 14.47,3.81 21.65,4.55 2.86,0.3 5.88,-0.36 8.34,-1.86 -4.21,-3.93 -8.8,-7.39 -13.07,-11.23 -1.99,-1.77 -3.3,-3.56 0,-4.47 3.25,-0.91 8.42,-0.38 10.83,-3.14 2.07,-2.36 -0.24,-6.69 -1.09,-9.11 -1.97,-5.66 -5.73,-18.71 -0.02,-23.57 4.21,-3.56 14.56,1.07 19.01,2.05 21.92,4.82 46.01,3.94 59.04,-17.04 2.06,-3.32 3.26,-7.08 6.28,-9.7 3.21,-2.8 7.27,-4.33 11.14,-5.97 2.71,-1.16 6.17,-2.43 7.76,-5.12 2.44,-4.11 -1.78,-9.28 -3.59,-12.7 -2.98,-5.6 -9.24,-14.96 -8.04,-21.84 0.26,-1.46 1.5,-2.19 2.88,-1.65 16.74,-0.57 35.78,-5.45 49.53,-15.29 5.11,-3.65 10.38,-9.05 10.03,-15.83 -0.47,-9.5 -10.39,-15.37 -16.7,-20.97 -11.08,-9.81 -18.93,-19.46 -21.93,-33.96 -2.69,-12.98 -14.67,-17.97 -26.82,-19.8 -10.75,-37.25 -35.28,-31.37 -35.28,-31.37 -2.67,-6.72 -6.81,-18.61 -15,-20.62 -1.18,-0.29 -2.42,-0.27 -3.64,-0.25 -2.29,0.04 -4.51,0.07 -6.19,-1.92 -5.22,-6.17 -2.73,-16.35 -1.45,-23.45 0.72,-3.96 4.82,-17.38 -1.97,-18.46 -6.3,-1 -11.91,3.84 -13.73,9.46 -3.07,9.47 -1.5,20.67 -0.66,30.36 1.13,13.03 0.08,24.74 -3.55,37.32 -2.1,7.26 -6.71,17.08 -3.85,24.68 1.45,3.83 5.18,5.54 7.82,8.41 3.68,4 6.07,9.09 7.33,14.35 1.71,7.08 2.42,17.98 -4.02,23.06 -5.7,4.48 -15.7,6.29 -19.24,13.09 -2.16,4.16 1.36,7.51 3.34,10.86 3.3,5.61 3.75,11.74 0.88,17.62 -4.11,8.43 -14.68,14.41 -16.77,23.77 -2.36,10.53 10.62,19.98 17,26.17 4.81,4.67 9.57,9.42 14.06,14.4 3.14,3.48 6.92,7.31 8.71,11.72 1.14,2.77 -0.65,3.61 -3.22,3.14 -5.97,-1.09 -11.02,-3.21 -17.25,-2.07 -4.95,0.89 -9.91,3.34 -13.28,7.12 -0.6,5.35 -1.18,10.81 -2.53,16.04 -0.51,1.91 -1.15,4.41 -2.9,5.61 -3.25,2.23 -5.6,2.26 -7.85,6.23 -1.93,3.4 -3.15,6.94 -5.91,9.84 -2.43,2.53 -5.41,4.35 -8.44,6.08 -5.37,3.07 -9.74,6.3 -8.77,13.17 1.66,11.79 10.24,21.71 12.91,33.39 0.77,3.37 1.22,12.94 -4.37,7.37 -2.86,-2.85 -4.78,-6.72 -6.45,-10.34 -0.96,-2.1 -2.33,-5.6 -4.62,-6.63 -3.75,-1.71 -1.01,9.94 -0.73,10.84 6.47,21.19 24.87,32.79 40.73,46.51 1.37,1.18 11.18,8.47 9.71,10.87 -4.55,0 -8.11,1.42 -10.95,3.51 -45.27,-27.11 -81.67,-68.2 -103.03,-116.45 -21.42,-48.37 -27.18,-103.2 -16.48,-154.99 18.42,-89.19 85.46,-163.7 172.1,-191.68 49.27,-15.92 103.27,-16.35 152.81,-1.25 50.71,15.45 95.86,46.94 128.22,88.88 2.75,5.04 11.19,18.33 12.22,17.18 -2.87,3.19 -5.73,6.28 -10.17,4.06 -3.84,-1.95 -6.96,-5.41 -9.84,-8.52 -8.46,-9.14 -16.04,-19.06 -25.07,-27.65 -4.44,-4.23 -9.2,-8.06 -13.39,-12.55 -2.75,-2.96 -5.27,-6.61 -8.59,-8.98 -6.29,-4.5 -10.96,12.11 -11.63,15.69 -1.85,9.74 3.69,17.82 10.62,24.04 4.59,4.12 16.04,9.66 16.63,16.46 0.64,7.21 -7.76,13.81 -5.06,21.02 1.63,4.35 7.15,5.67 10.17,8.9 3.45,3.68 5.09,8.49 6.2,13.32 0.82,3.58 1.24,7.59 3.16,10.81 1.79,3 5.15,4.95 7.13,7.98 4.7,7.18 7.97,18.18 1.61,25.41 -2.24,2.53 -7.2,3.96 -8.18,7.46 -0.72,2.56 2.16,4.71 3.88,6.08 5.46,4.38 12.18,9.02 9.87,17.04 -1.23,4.3 -4.17,2.6 -7.13,0.91 -1.67,-0.95 -3.34,-1.9 -4.71,-1.79 -5.23,0.44 -3.69,11.22 -4.5,14.75 -0.9,3.93 -14.21,-1.66 -16.15,-2.19 -8.02,-2.22 -19.9,-6.08 -26.87,0.68 -5.9,5.72 -6.74,15.22 -9.78,22.47 -3.9,9.3 -11.27,15.89 -16.82,24.07 -4.41,6.5 5.74,4.49 9.59,5.98 7.52,2.94 8.77,11.9 8.84,19 0.07,6.47 -1.04,12.84 -1.4,19.29 -0.21,3.76 -0.57,8.35 1.22,11.83 2.62,5.13 10.03,3.28 14.47,5.22 3.51,1.52 3.49,5.14 3.95,8.4 0.7,5.03 3.96,5.89 8.38,6.99 8.64,2.13 17,7.85 26.06,7.88 3.48,0.01 6.19,-1.68 7.07,-5.16 0.61,-2.41 -0.37,-7.95 1.5,-9.87 0.75,-0.76 3.15,-0.62 4.16,-1.14 5.22,-2.68 8.89,-8.29 12.44,-12.73 1.17,-1.48 3.47,-5.68 5.72,-5.83 1.96,-0.14 4.74,3.02 6.27,3.98 4.09,2.56 10.12,3.78 12.96,7.95 2.63,3.88 -2.62,6.49 -5.59,7.5"
         style="fill:#64ccdb;fill-opacity:1;fill-rule:nonzero;stroke:none"
         id="path354" />
      <path
         d="m 2565.97,1174.43 c 0.7,0.92 1.44,1.8 2.13,2.73 3.53,4.7 6.9,9.52 10.09,14.45 -1.03,1.15 -9.47,-12.14 -12.22,-17.18"
         style="fill:#4494cc;fill-opacity:1;fill-rule:nonzero;stroke:none"
         id="path356" />
      <path
         d="m 2134.69,1444.82 c -1.45,-2.89 -2.85,-5.82 -4.2,-8.78 1.35,2.96 2.75,5.89 4.2,8.78"
         style="fill:#ffffff;fill-opacity:1;fill-rule:nonzero;stroke:none"
         id="path358" />
      <path
         d="m 2135.16,1445.74 -0.47,-0.92 0.47,0.92"
         style="fill:#ffffff;fill-opacity:1;fill-rule:nonzero;stroke:none"
         id="path360" />
      <path
         d="m 2130.49,1436.04 -0.64,-1.41 0.64,1.41"
         style="fill:#ffffff;fill-opacity:1;fill-rule:nonzero;stroke:none"
         id="path362" />
      <path
         d="m 2125.52,1424.4 c -1.35,-3.39 -2.63,-6.82 -3.84,-10.28 1.22,3.46 2.49,6.89 3.84,10.28"
         style="fill:#ffffff;fill-opacity:1;fill-rule:nonzero;stroke:none"
         id="path364" />
      <path
         d="m 2129.85,1434.63 c -1.29,-2.88 -2.52,-5.78 -3.7,-8.71 1.18,2.93 2.41,5.83 3.7,8.71"
         style="fill:#ffffff;fill-opacity:1;fill-rule:nonzero;stroke:none"
         id="path366" />
      <path
         d="m 2135.16,1445.74 c 21.94,43.19 55.78,79.37 97.19,104.18 2.84,-2.09 6.4,-3.51 10.95,-3.51 0,0 4.9,0 -26.45,-24.49 -31.36,-24.51 -28.44,-58.5 -18.64,-37.1 9.81,21.41 18.64,13.56 2.96,-16.83 -15.68,-30.39 8.24,-20.57 16.34,-39.19 8.16,-18.61 11.1,3.91 15.01,-31.37 0,0 9.84,-11.76 27.45,-5.88 17.64,5.88 -2.94,-15.67 -21.57,-33.32 -18.62,-17.66 -12.75,-23.5 -2.94,-34.3 9.8,-10.8 13.73,-19.6 4.91,-31.38 -8.81,-11.76 13.73,-15.66 19.6,-22.52 5.88,-6.86 4.89,-29.41 -8.82,-39.23 -13.7,-9.78 6.86,-31.34 3.89,-61.73 -2.94,-30.37 -2.21,-43.1 11.64,-45.07 13.86,-1.98 -1.82,26.45 4.06,39.19 2.24,4.84 4.62,4.72 7.47,4.6 4.63,-0.19 10.5,-0.38 18.99,20.88 0,0 24.53,-5.88 35.28,31.37 0,0 21.55,2.95 25.49,14.7 3.94,11.76 -0.98,19.6 30.36,45.08 31.35,25.5 -21.56,45.1 -49.96,46.07 0,0 -10.42,-4.25 7.85,28.43 7.95,14.27 -15.69,10.77 -21.57,23.51 -5.88,12.73 -19.59,27.44 -47.04,24.51 -27.44,-2.95 -35.31,-12.76 -36.26,3.91 -0.98,16.67 11.74,24.49 -1.98,26.46 -13.7,1.96 -6.85,2.95 7.87,16.67 0,0 -8.84,5.91 -17.65,-2.95 -8.83,-8.83 -24.52,4.89 -5.89,24.49 18.66,19.62 48.01,34.33 46.06,-2.93 -1.95,-37.25 11.77,16.83 11.77,16.83 0,0 20.58,26.31 46.07,28.24 25.45,1.97 9.8,2.96 9.8,11.79 0,4.61 3.22,0.35 8.33,-3.9 4.65,-3.86 10.87,-7.73 17.65,-4.93 14.19,5.9 -15.22,7.84 -12.27,17.63 2.92,9.81 19.63,6.88 26.46,-5.88 6.86,-12.74 14.7,6.85 -2.93,27.47 -17.65,20.55 -14.7,7.81 -31.37,-0.99 -16.64,-8.83 -9.79,-13.72 -12.74,0.99 -1.65,8.27 -2.68,6.9 -4.67,5.53 -1.54,-1.05 -3.66,-2.11 -7.09,1.29 -7.87,7.86 13.99,4.23 25.48,2.96 11.5,-1.25 7.85,6.86 7.85,6.86 l 11.28,4.89 c 0,0 7.36,-10.76 16.16,-8.8 8.79,1.95 -5.88,15.7 2.92,13.72 2.94,-0.65 6.2,-0.22 9.29,0.22 6.17,0.87 11.62,1.74 12.28,-6.12 0.98,-11.75 -6.87,-27.45 25.5,-9.78 6.52,3.54 10.88,5.86 13.85,7.25 -25.18,8.29 -52.06,12.84 -80.03,12.84 -99.7,0 -186,-57.11 -228.19,-140.36"
         style="fill:#f5ebcf;fill-opacity:1;fill-rule:nonzero;stroke:none"
         id="path368" />
      <path
         d="m 2126.15,1425.92 -0.63,-1.52 0.63,1.52"
         style="fill:#ffffff;fill-opacity:1;fill-rule:nonzero;stroke:none"
         id="path370" />
      <path
         d="m 2449.94,1570.93 c 0.21,-2.33 0.97,-5.34 5.06,-7.88 12.74,-7.81 8.83,-0.96 25.47,-10.76 16.67,-9.82 5.88,-20.59 18.62,-22.55 12.73,-1.97 24.51,-19.6 14.72,-20.59 -9.8,-0.98 -10.79,10.78 -25.47,12.77 -14.73,1.94 5.88,-4.9 15.67,-13.75 9.8,-8.8 9.8,-19.25 0,-23.35 -9.79,-4.08 -2.55,-26.64 13.43,-23.68 15.97,2.95 10.06,19.6 18.9,15.65 8.83,-3.91 5.87,-13.69 20.58,-19.59 14.73,-5.88 -1.97,-13.7 15.69,-14.68 17.66,-0.98 26.46,-7.85 10.76,-14.7 -15.68,-6.9 -7.81,-12.74 -21.56,3.93 -13.72,16.64 -12.36,0.69 -13.72,16.64 -1.33,15.96 -23.5,0.99 -35.25,-0.97 -11.79,-1.98 -1.98,-13.73 -12.77,-15.67 -10.8,-1.96 -15.69,0.96 -12.74,-24.51 2.93,-25.51 -3.91,-31.36 -15.68,-31.36 -11.76,0 9.84,-13.72 15.68,-31.37 5.88,-17.63 6.89,-28.43 32.36,-21.57 25.48,6.86 17.63,6.86 20.59,-6.86 1.46,-6.86 4.89,-4.9 8.19,-2.93 3.31,1.96 6.49,3.92 7.46,-2.94 1.98,-13.72 -24.48,-16.67 -9.81,-25.47 14.7,-8.81 3.97,-29.41 -2.92,-34.31 -6.86,-4.92 -1.97,-22.52 -16.64,-30.39 -14.74,-7.84 6.85,-21.53 -1.97,-30.4 -8.8,-8.83 -32.37,-19.59 -23.54,-41.16 8.86,-21.53 8.86,-8.8 27.47,6.89 18.58,15.67 34.3,42.12 43.13,41.14 3.16,-0.35 4.66,-2.81 6.54,-4.9 -28.51,-43.99 -70.13,-78.72 -119.28,-98.59 93.93,37.85 160.25,129.8 160.25,237.28 0,110.87 -70.58,205.14 -169.22,240.63"
         style="fill:#fdf9ee;fill-opacity:1;fill-rule:nonzero;stroke:none"
         id="path372" />
      <path
         d="m 2445.63,1572.49 c 1.45,-0.48 2.87,-1.04 4.31,-1.56 v 0.05 c -1.44,0.54 -2.87,1.03 -4.31,1.51"
         style="fill:#ffffff;fill-opacity:1;fill-rule:nonzero;stroke:none"
         id="path374" />
      <path
         d="m 2494.08,1110.51 -1.87,-1.01 1.87,1.01"
         style="fill:#cdc6a0;fill-opacity:1;fill-rule:nonzero;stroke:none"
         id="path376" />
      <path
         d="m 2190.44,1518.54 c 2.15,1.97 4.4,3.83 6.61,5.73 -2.21,-1.89 -4.46,-3.76 -6.61,-5.73"
         style="fill:#cdc6a0;fill-opacity:1;fill-rule:nonzero;stroke:none"
         id="path378" />
      <path
         d="m 2553.93,1159.92 -0.65,-0.69 0.65,0.69"
         style="fill:#cdc6a0;fill-opacity:1;fill-rule:nonzero;stroke:none"
         id="path380" />
      <path
         d="m 2553,1158.95 -0.01,-0.01 c -3.57,-3.95 -7.24,-7.79 -11.05,-11.51 3.81,3.72 7.49,7.56 11.06,11.52"
         style="fill:#cdc6a0;fill-opacity:1;fill-rule:nonzero;stroke:none"
         id="path382" />
      <path
         d="m 2436.16,1085.07 c 0.03,0.01 0.06,0.02 0.1,0.03 -0.04,-0.01 -0.07,-0.02 -0.1,-0.03 m 0.21,0.06 c 0.46,0.14 0.92,0.28 1.38,0.42 v 0 0 c -0.46,-0.14 -0.92,-0.28 -1.38,-0.42 m 38.45,15.02 c 0.28,0.14 0.55,0.27 0.82,0.4 l 1.17,0.53 c -0.07,-0.04 -0.14,-0.08 -0.22,-0.11 -0.58,-0.28 -1.17,-0.55 -1.77,-0.82 m 31.73,38.03 c -3.12,2.5 -5.45,9.24 -6.51,13.18 0.27,-0.94 0.61,-1.9 1.01,-2.88 2.26,-5.49 3.94,-8.75 5.5,-10.3 m 4.86,0 c 2.05,1.58 4.54,4.71 8.17,8.62 -2.62,-2.85 -5.04,-6.3 -8.17,-8.62 m 8.54,9.01 c 2.34,2.5 5.14,5.29 8.57,8.18 2.64,2.23 5.22,4.67 7.73,7.22 -1.03,-1.05 -2.07,-2.08 -3.14,-3.09 -4.36,-4.16 -9.03,-7.92 -13.16,-12.31 m 38.89,18.41 c 2.44,2.89 4.82,5.83 7.13,8.83 -0.04,-0.08 -0.08,-0.16 -0.12,-0.24 h -0.01 c 0.03,0.05 0.06,0.1 0.08,0.15 -2.29,-2.97 -4.66,-5.88 -7.08,-8.74 m 7.31,9.14 c 0.01,0.03 0.02,0.05 0.04,0.08 -0.02,-0.03 -0.03,-0.05 -0.04,-0.08 m 0.06,0.11 c 2.84,5.1 10.32,16.83 11.82,16.83 v 0 c -1.5,0.01 -8.98,-11.73 -11.82,-16.83 m -8.69,11.58 c 0.33,0.37 0.66,0.73 0.99,1.08 -0.11,-0.12 -0.22,-0.24 -0.33,-0.36 -0.22,-0.24 -0.44,-0.48 -0.66,-0.72 m -31.59,4.98 c 0.45,0.89 0.74,1.81 0.82,2.75 0.02,0.17 0.03,0.33 0.03,0.49 -0.03,-1.12 -0.28,-2.21 -0.85,-3.24 m 52.26,0.2 c -0.04,0.05 -0.1,0.07 -0.16,0.07 0.06,0 0.12,-0.02 0.16,-0.07 v 0 m 0,0 c -2.19,2.43 -4.38,4.81 -7.26,4.81 -0.76,0 -1.57,-0.16 -2.44,-0.53 0.95,0.42 1.84,0.64 2.68,0.64 0.16,0 0.32,0 0.48,-0.02 3.16,-0.35 4.66,-2.81 6.54,-4.9 v 0 m -52.61,8.55 c -2.05,4.99 -5.83,9.85 -3.89,15.02 1.63,4.35 7.15,5.67 10.17,8.9 3.06,3.26 4.69,7.42 5.8,11.68 -1.48,-5.82 -4,-11.91 -11.1,-15.72 -9.63,-5.12 -3.75,-12.74 -0.98,-19.88 m 12.65,38 c 0.7,3.3 1.18,6.88 2.86,9.82 -1.41,-2.5 -2.02,-6.03 -2.86,-9.82 m 3.27,10.49 c 1.8,2.69 4.81,4.56 6.71,7.32 -1.64,-2.45 -3.43,-4.41 -5.01,-5.54 -0.67,-0.48 -1.23,-1.08 -1.7,-1.78 m -172,13.02 v 0.37 c 4.08,4.85 10.02,10.62 18.83,17.78 6.58,5.35 9.45,10.44 9.61,15.16 0,-0.07 0,-0.14 -0.01,-0.21 -0.47,-9.5 -10.39,-15.37 -16.7,-20.97 -4.47,-3.96 -8.42,-7.89 -11.73,-12.13 m 180.32,20.08 c -2.24,2.38 -6.83,3.8 -7.95,7.03 0.46,-1.23 1.77,-2.55 4.25,-4.04 1.48,-0.89 2.7,-1.89 3.7,-2.99 m -8.15,8.19 c 0.04,1.94 1.97,3.59 3.46,4.78 -1.96,-1.62 -3.41,-3.14 -3.46,-4.78 m -143.73,5.04 c 0,0.02 0,0.03 0.01,0.05 -0.01,-0.02 -0.01,-0.03 -0.01,-0.05 m 0.01,0.09 c 0,0.01 0,0.02 0,0.02 0,0 0,-0.01 0,-0.02 m 148.67,0.83 c 4.79,3.81 10.08,7.94 9.3,14.38 0.01,-0.02 0.01,-0.05 0.01,-0.07 0.96,-6.69 -4.82,-10.81 -9.31,-14.31 m -159.49,15.24 c -4.9,3.36 -11.06,6.24 -17.63,8.55 v 0.32 c 6.34,-2.27 12.35,-5.21 17.63,-8.87 m 156.78,0.15 c -0.07,0 -0.15,0.01 -0.22,0.01 -3.59,0.3 -3.99,5.48 -4.15,9.83 0.11,-1.42 0.32,-3.1 0.74,-5.05 0.77,-3.62 2.09,-4.78 3.65,-4.78 0.11,0 0.22,0 0.33,0.01 -0.12,-0.01 -0.23,-0.02 -0.35,-0.02 m 11.49,1.3 c -0.58,1.7 -1.48,2.3 -2.55,2.3 -1.31,0 -2.88,-0.9 -4.45,-1.8 -0.17,-0.09 -0.34,-0.19 -0.51,-0.28 0.2,0.11 0.39,0.22 0.58,0.34 1.56,0.92 3.1,1.85 4.38,1.85 1.06,0 1.95,-0.63 2.55,-2.41 m -48.5,8.15 c -3.16,-0.01 -6.2,0.6 -8.78,2.25 2.19,-1.38 4.95,-2.14 8.61,-2.14 3.45,0 7.68,0.67 12.96,2.09 0.77,0.21 1.5,0.41 2.21,0.6 -4.46,-1.25 -9.9,-2.8 -15,-2.8 m -11.25,4.32 c -4.34,4.6 -5.77,11.37 -7.68,17.48 2.46,-7.54 4.18,-13.68 7.68,-17.48 m 43.51,1.1 c -0.25,0.82 -1.09,1.19 -2.25,1.27 0.15,0.01 0.29,0.02 0.42,0.02 1.12,0 1.6,-0.41 1.83,-1.29 m -52.1,19.12 c -0.15,0.43 -0.32,0.86 -0.48,1.28 0.17,-0.43 0.33,-0.85 0.48,-1.28 m -1.1,2.71 c -3.99,8.79 -11.03,15.2 -16.39,23.09 -0.02,0.04 -0.05,0.08 -0.08,0.12 3.28,-4.91 11.98,-13.29 16.47,-23.21 m -15.1,27.87 c 2.43,0.59 6.14,0.42 8.2,1.17 -2.16,-0.83 -4.65,-1.15 -7.41,-1.15 -0.28,0 -0.55,-0.01 -0.79,-0.02 m 8.76,1.39 c 5.08,2.23 7.14,7.31 7.93,12.57 -1.04,-7.04 -3.84,-10.79 -7.93,-12.57 m 8.38,19.76 c -0.02,4.41 -0.56,8.78 -0.99,13.16 0.1,-0.93 0.2,-1.91 0.32,-2.93 0.44,-3.84 0.66,-7.23 0.67,-10.23 m -1.29,16.65 c -0.05,0.56 -0.08,1.12 -0.11,1.69 -0.2,3.61 -0.54,7.98 1.01,11.4 -1.07,-2.45 -1.39,-6.43 -0.9,-13.09 m 84.95,7.27 c -0.1,0 -0.2,0.01 -0.3,0.04 0.07,-0.02 0.14,-0.02 0.21,-0.03 0.04,0 0.08,0 0.12,0 0.04,0 0.08,0 0.12,0 -0.05,0 -0.1,-0.01 -0.15,-0.01 m 5.98,3.86 c 0.07,0.04 0.13,0.09 0.2,0.13 0.14,0.09 0.29,0.18 0.45,0.27 -0.23,-0.14 -0.44,-0.27 -0.65,-0.4 m -11.63,1.77 c -1.13,1.41 -2.5,3.13 -4.2,5.19 -3.78,4.58 -6.41,6.69 -8.27,7.68 5.15,-2.7 8.79,-8.25 12.31,-12.66 0.05,-0.06 0.1,-0.14 0.16,-0.21 m -76.02,3 c 2.24,1.42 5.35,1.53 8.22,1.89 -3.48,-0.52 -6.25,-0.69 -8.22,-1.89 m 12.58,2.97 c 2.9,1.43 3.19,4.42 3.54,7.31 -0.32,-2.88 -0.45,-5.8 -3.54,-7.31 m 88.01,0.03 c 0.07,0.11 0.14,0.21 0.22,0.31 2.63,3.88 -2.62,6.49 -5.59,7.5 -5.92,2.03 -12.22,1.23 -18.13,2.92 -0.12,0.04 -0.25,0.08 -0.37,0.12 1.33,-0.43 3.22,-0.74 5.9,-0.89 13.52,-0.75 21.84,-4.95 17.97,-9.96 m -41.18,7.95 c -0.08,0.05 -0.15,0.12 -0.22,0.21 0.02,-0.03 0.05,-0.05 0.07,-0.08 0.05,-0.05 0.1,-0.09 0.15,-0.13 m -31.66,8.19 c 7.42,2.47 14.74,6.8 22.56,6.96 -6.32,-0.19 -15.32,-4.59 -22.56,-6.96 m 45.98,1.13 c -0.14,3.73 -3.08,5.8 -6.31,7.17 5.41,-2.29 6.25,-4.84 6.31,-7.17 m -48.88,11.04 c -0.09,0 -0.19,0 -0.28,0 0.01,0 0.03,0 0.04,0 0.91,0 1.86,0.09 2.84,0.27 1.56,0.28 2.91,0.7 4.08,1.22 -1.82,-0.95 -4,-1.49 -6.68,-1.49 m -11.56,5.76 c -2.27,2.86 -3.66,6.48 -3.71,10.13 -0.01,0.22 0,0.44 0.01,0.65 -0.12,-3.52 1.2,-7.57 3.7,-10.78 m 40.96,1.43 c -1.31,2.12 -4.22,6.39 -7.16,8.38 3.73,-1.94 5.18,-5.04 7.16,-8.38 m -13.22,6.99 c 0.52,1.03 1.1,1.8 1.93,2.14 -0.71,-0.35 -1.36,-1.03 -1.93,-2.14 m -26.85,9.84 c 3.25,2.55 7.05,4.67 7.19,9.59 -0.1,-4.07 -2.49,-7.57 -7.19,-9.59 m 11.53,24.77 c 0.09,0.05 0.18,0.1 0.26,0.16 0.09,0.05 0.18,0.11 0.26,0.17 -0.16,-0.12 -0.33,-0.23 -0.52,-0.33 m -26.06,7.95 c -0.32,0.17 -0.63,0.35 -0.94,0.52 l -0.02,0.01 c 0.31,-0.17 0.63,-0.35 0.96,-0.53 m 6.74,1.76 c -2.16,1.17 -4.76,2.1 -8.04,2.55 -1.7,0.22 -2.94,0.33 -3.77,0.33 -0.64,0 -1.04,-0.06 -1.23,-0.19 v 0 c 0.62,0.41 1.46,0.57 2.42,0.57 3.43,0 8.38,-2.09 10.36,-3.11 0.09,-0.05 0.17,-0.1 0.26,-0.15 m 18.19,0.17 c -3.3,3.89 -8.14,7.49 -9.83,8.33 -3.5,1.75 -8.77,1.36 -11.38,4.56 -2.22,2.73 -2.12,6.92 -3.48,10.08 -0.58,1.35 -1.35,2.62 -2.27,3.83 6.15,-7.84 1.3,-15.03 11.48,-16.6 6.16,-0.96 12.1,-5.58 15.48,-10.2 m -132.56,4.18 c -0.14,0 -0.28,0.01 -0.42,0.03 -3.62,0.62 -5.67,7.05 -8,9.42 -1.05,1.06 -2.47,2.16 -4.09,3.13 v 0.16 c 3.15,-1.98 6.04,-4.91 8.07,-8.69 1.51,-2.81 3.08,-4.05 4.4,-4.05 1.09,0 2.02,0.84 2.63,2.33 -0.5,-1.26 -1.31,-2.33 -2.59,-2.33 m 3.32,5.69 c 0.46,5.93 -2.07,15.76 -10.69,25.83 -1.94,2.27 -3.64,4.13 -5.14,5.64 v 0 c 8.05,-7.99 16.86,-19.48 15.83,-31.47 m 83.72,28.37 c -0.88,0.24 -1.76,0.44 -2.61,0.61 0.78,-0.15 1.62,-0.32 2.61,-0.61 m -59.56,0.15 c -1.14,0 -2.21,0.21 -3.14,0.73 0.71,-0.38 1.61,-0.58 2.74,-0.58 3.72,0 9.98,2.22 20.44,7.93 1.8,0.98 3.44,1.87 4.93,2.67 -4.67,-2.54 -9.3,-5.14 -14.15,-7.31 -2.66,-1.19 -7.11,-3.44 -10.82,-3.44 m -3.67,1.08 c -4.12,3.02 -1.74,9.97 -1.72,15.66 0.24,-6.22 -1.48,-13.19 1.72,-15.66 m 56.04,0.5 c -2.96,0.96 -5.96,2.44 -8.21,4.49 0.4,-0.32 0.85,-0.64 1.35,-0.95 3.08,-1.89 5.2,-2.93 6.86,-3.54 m -84.21,8.2 c -0.38,0 -0.79,0.02 -1.22,0.07 0.31,-0.03 0.62,-0.05 0.93,-0.05 0.72,0 1.44,0.08 2.18,0.24 0.12,0.03 0.23,0.06 0.34,0.09 -0.6,-0.23 -1.34,-0.35 -2.23,-0.35 m -2.9,0.35 c -1.87,0.45 -3.64,1.34 -5.25,2.47 v 0.07 c 1.55,-1.11 3.33,-2.06 5.25,-2.54 m 68.15,4.97 c 0.17,0.08 0.33,0.15 0.48,0.23 v 0 c -0.16,-0.08 -0.32,-0.16 -0.48,-0.23 m -61.71,2.82 c -0.1,0.24 -0.2,0.47 -0.3,0.7 0.04,-0.09 0.08,-0.17 0.11,-0.25 0.07,-0.15 0.13,-0.3 0.19,-0.45 m 21.42,4.46 c -0.11,0.15 -0.23,0.29 -0.36,0.43 -0.16,0.17 -0.33,0.33 -0.5,0.47 0.31,-0.25 0.6,-0.55 0.86,-0.9 m -23.04,0.74 c 0.07,0.3 0.24,0.53 0.54,0.67 -0.23,-0.11 -0.39,-0.28 -0.49,-0.51 -0.02,-0.05 -0.04,-0.11 -0.05,-0.16"
         style="fill:#e2e2e0;fill-opacity:1;fill-rule:nonzero;stroke:none"
         id="path384" />
      <path
         d="m 2565.85,1174.19 c 0.04,0.08 0.08,0.16 0.12,0.24 v 0 0 0 0 c 0.7,0.92 1.44,1.8 2.13,2.73 2.08,2.77 4.1,5.58 6.06,8.42 -2.67,-3.87 -5.44,-7.67 -8.31,-11.39"
         style="fill:#3a81b4;fill-opacity:1;fill-rule:nonzero;stroke:none"
         id="path386" />
      <path
         d="m 2369.5,1074.79 v 186.88 c 3.31,4.24 7.26,8.17 11.73,12.13 6.31,5.6 16.23,11.47 16.7,20.97 0.01,0.07 0.01,0.14 0.01,0.21 v 0 c 0,0.02 0,0.03 0.01,0.05 0,0.01 0,0.03 0,0.04 0,0.01 0,0.02 0,0.02 0.15,6.06 -4.18,11.5 -10.82,16.05 -5.28,3.66 -11.29,6.6 -17.63,8.87 v 216.29 c 1.62,-0.97 3.04,-2.07 4.09,-3.13 2.33,-2.37 4.38,-8.8 8,-9.42 0.14,-0.02 0.28,-0.03 0.42,-0.03 1.28,0 2.09,1.07 2.59,2.33 0.37,0.89 0.62,2.03 0.73,3.36 1.03,11.99 -7.78,23.48 -15.83,31.47 v 9.65 c 1.61,-1.13 3.38,-2.02 5.25,-2.47 0.55,-0.13 1.11,-0.23 1.68,-0.28 0.43,-0.05 0.84,-0.07 1.22,-0.07 0.89,0 1.63,0.12 2.23,0.35 3.8,1.05 2.66,4.57 1.31,7.79 -0.06,0.15 -0.12,0.3 -0.19,0.45 -0.03,0.08 -0.07,0.16 -0.11,0.25 -0.8,1.85 -1.55,3.54 -1.32,4.5 0.01,0.05 0.03,0.11 0.05,0.16 0.1,0.23 0.26,0.4 0.49,0.51 0.22,0.11 0.51,0.17 0.89,0.17 0.39,0 0.87,-0.07 1.46,-0.2 1.08,-0.24 2.2,-0.33 3.35,-0.33 1.97,0 3.99,0.27 5.94,0.55 1.95,0.27 3.83,0.55 5.5,0.55 1.77,0 3.32,-0.31 4.5,-1.25 0.17,-0.14 0.34,-0.3 0.5,-0.47 0.13,-0.14 0.25,-0.28 0.36,-0.43 0.75,-1.01 1.25,-2.47 1.42,-4.52 0.03,-0.37 0.05,-0.74 0.07,-1.12 -0.02,-5.69 -2.4,-12.64 1.72,-15.66 0.16,-0.13 0.34,-0.24 0.53,-0.35 0.93,-0.52 2,-0.73 3.14,-0.73 3.71,0 8.16,2.25 10.82,3.44 4.85,2.17 9.48,4.77 14.15,7.31 3.61,1.93 6.35,3.35 8.44,4.35 0.16,0.07 0.32,0.15 0.48,0.23 v 0 c 1.2,-0.41 2.4,-0.83 3.59,-1.25 l -1.34,0.48 c 0.06,-0.02 0.12,-0.04 0.18,-0.06 1.38,-0.47 2.75,-1 4.13,-1.5 v 0 c 0.19,-2.05 0.8,-4.62 3.71,-6.93 2.25,-2.05 5.25,-3.53 8.21,-4.49 1.83,-0.68 3.12,-0.86 4.58,-1.12 0.85,-0.17 1.73,-0.37 2.61,-0.61 2.38,-0.71 5.68,-2.11 11.42,-5.49 3.35,-1.97 5.59,-3.98 7.14,-5.95 0.92,-1.21 1.69,-2.48 2.27,-3.83 1.36,-3.16 1.26,-7.35 3.48,-10.08 2.61,-3.2 7.88,-2.81 11.38,-4.56 1.69,-0.84 6.53,-4.44 9.83,-8.33 2.86,-3.93 3.89,-7.85 1.65,-9.55 -0.08,-0.06 -0.17,-0.12 -0.26,-0.17 -0.08,-0.06 -0.17,-0.11 -0.26,-0.16 -0.5,-0.26 -1.13,-0.43 -1.89,-0.51 -0.39,-0.04 -0.77,-0.06 -1.14,-0.06 -6.72,0 -9.15,6.43 -16.29,10.28 -0.09,0.05 -0.17,0.1 -0.26,0.15 -1.98,1.02 -6.93,3.11 -10.36,3.11 -0.96,0 -1.8,-0.16 -2.42,-0.57 v 0 c -0.77,-0.48 1.69,-1.89 5.34,-3.92 l 0.02,-0.01 c 0.31,-0.17 0.62,-0.35 0.94,-0.52 4.48,-2.49 10.34,-5.8 14.37,-9.44 5,-4.49 7.45,-9.41 7.35,-13.69 -0.14,-4.92 -3.94,-7.04 -7.19,-9.59 -0.05,-0.03 -0.11,-0.05 -0.16,-0.07 -2.92,-1.22 -4.32,-4.08 -4.43,-7.41 -0.01,-0.21 -0.02,-0.43 -0.01,-0.65 0.05,-3.65 1.44,-7.27 3.71,-10.13 2.59,-3.32 6.44,-5.74 11.28,-5.76 0.09,0 0.19,0 0.28,0 2.68,0 4.86,0.54 6.68,1.49 6.8,2.99 7.78,9.27 9.5,12.69 0.57,1.11 1.22,1.79 1.93,2.14 0.31,0.13 0.66,0.2 1.05,0.2 0.65,0 1.41,-0.19 2.34,-0.6 0.26,-0.11 0.5,-0.23 0.74,-0.35 2.94,-1.99 5.85,-6.26 7.16,-8.38 2.22,-3.76 5.11,-7.82 12.68,-10.86 0.17,-0.07 0.33,-0.13 0.49,-0.2 3.23,-1.37 6.17,-3.44 6.31,-7.17 0.06,-2.73 -0.95,-5.13 2.99,-6.42 0.12,-0.04 0.25,-0.08 0.37,-0.12 5.91,-1.69 12.21,-0.89 18.13,-2.92 2.97,-1.01 8.22,-3.62 5.59,-7.5 -0.08,-0.1 -0.15,-0.2 -0.22,-0.31 -1.19,-1.53 -3.53,-3.14 -7.21,-4.74 -2.07,-0.91 -3.73,-1.81 -5.08,-2.63 -0.16,-0.09 -0.31,-0.18 -0.45,-0.27 -0.07,-0.04 -0.13,-0.09 -0.2,-0.13 -3.34,-2.13 -4.63,-3.73 -5.83,-3.85 -0.04,0 -0.08,0 -0.12,0 -0.04,0 -0.08,0 -0.12,0 -0.07,0.01 -0.14,0.01 -0.21,0.03 -1.13,0.24 -2.39,1.86 -5.35,5.59 -0.06,0.07 -0.11,0.15 -0.16,0.21 -3.52,4.41 -7.16,9.96 -12.31,12.66 -2.38,1.26 -3.5,0.69 -4.14,1.08 -0.05,0.04 -0.1,0.08 -0.15,0.13 -0.02,0.03 -0.05,0.05 -0.07,0.08 -0.49,0.65 -0.64,2.45 -1.09,7.67 -0.45,5.43 -3.32,7.28 -7.36,7.28 -0.14,0 -0.28,0 -0.43,-0.01 -7.82,-0.16 -15.14,-4.49 -22.56,-6.96 -1.76,-0.58 -3.42,-1.04 -4.9,-1.28 -5.74,-0.96 -6.36,-4.24 -6.73,-7.58 -0.35,-2.89 -0.64,-5.88 -3.54,-7.31 -0.68,-0.33 -1.5,-0.6 -2.5,-0.78 -0.64,-0.11 -1.26,-0.21 -1.86,-0.3 -2.87,-0.36 -5.98,-0.47 -8.22,-1.89 -1,-0.61 -1.8,-1.48 -2.38,-2.81 -1.55,-3.42 -1.21,-7.79 -1.01,-11.4 0.03,-0.57 0.06,-1.13 0.11,-1.69 0.08,-1.09 0.18,-2.25 0.3,-3.49 0.43,-4.38 0.97,-8.75 0.99,-13.16 0.02,-2.71 -0.14,-5.1 -0.45,-7.19 -0.79,-5.26 -2.85,-10.34 -7.93,-12.57 -0.19,-0.08 -0.37,-0.15 -0.56,-0.22 -2.06,-0.75 -5.77,-0.58 -8.2,-1.17 -3.35,-0.21 -3.22,-1.88 -1.37,-4.66 0.03,-0.04 0.06,-0.08 0.08,-0.12 5.36,-7.89 12.4,-14.3 16.39,-23.09 0.22,-0.48 0.42,-0.95 0.62,-1.43 0.16,-0.42 0.33,-0.85 0.48,-1.28 0.1,-0.26 0.18,-0.52 0.27,-0.77 0.22,-0.67 0.43,-1.32 0.64,-1.97 1.91,-6.11 3.34,-12.88 7.68,-17.48 0.74,-0.79 1.56,-1.49 2.47,-2.07 2.58,-1.65 5.62,-2.26 8.78,-2.25 5.1,0 10.54,1.55 15,2.8 8.45,2.32 12.77,3.72 15.01,3.89 1.16,-0.08 2,-0.45 2.25,-1.27 0.27,-1.01 0.2,-2.66 0.38,-5.03 0.16,-4.35 0.56,-9.53 4.15,-9.83 0.07,0 0.15,-0.01 0.22,-0.01 0.12,0 0.23,0.01 0.35,0.02 1.13,0.11 2.38,0.77 3.63,1.5 0.17,0.09 0.34,0.19 0.51,0.28 1.57,0.9 3.14,1.8 4.45,1.8 1.07,0 1.97,-0.6 2.55,-2.3 0.21,-0.62 0.39,-1.38 0.52,-2.31 0.78,-6.44 -4.51,-10.57 -9.3,-14.38 -0.52,-0.4 -1.02,-0.79 -1.49,-1.18 -1.49,-1.19 -3.42,-2.84 -3.46,-4.78 -0.01,-0.38 0.05,-0.76 0.2,-1.16 1.12,-3.23 5.71,-4.65 7.95,-7.03 6.61,-7.3 3.15,-18.64 -1.61,-25.78 -1.9,-2.76 -4.91,-4.63 -6.71,-7.32 -0.15,-0.21 -0.28,-0.44 -0.41,-0.67 -1.68,-2.94 -2.16,-6.52 -2.86,-9.82 -0.18,-0.79 -0.36,-1.59 -0.57,-2.4 -1.11,-4.26 -2.74,-8.42 -5.8,-11.68 -3.02,-3.23 -8.54,-4.55 -10.17,-8.9 -1.94,-5.17 1.84,-10.03 3.89,-15.02 0.73,-1.89 1.25,-3.74 1.2,-5.51 0,-0.16 -0.01,-0.32 -0.03,-0.49 -0.08,-0.94 -0.37,-1.86 -0.82,-2.75 -0.34,-0.61 -0.78,-1.2 -1.34,-1.77 -8.4,-8.42 -30.26,-18.61 -24.55,-38.28 1.06,-3.94 3.39,-10.68 6.51,-13.18 0.77,-0.77 1.51,-1.12 2.27,-1.12 0.82,0 1.66,0.4 2.59,1.12 3.13,2.32 5.55,5.77 8.17,8.62 0.12,0.13 0.25,0.26 0.37,0.39 4.13,4.39 8.8,8.15 13.16,12.31 1.07,1.01 2.11,2.04 3.14,3.09 7.89,8.01 15.1,17.09 21.27,23.84 0.22,0.24 0.44,0.48 0.66,0.72 0.11,0.12 0.22,0.24 0.33,0.36 3.77,4.04 7.12,7.1 9.98,8.38 0.87,0.37 1.68,0.53 2.44,0.53 2.88,0 5.07,-2.38 7.26,-4.81 v 0 c -0.04,0.05 -0.1,0.07 -0.16,0.07 v 0 0 0 c -1.5,0 -8.98,-11.73 -11.82,-16.83 -0.01,-0.01 -0.02,-0.02 -0.02,-0.03 -0.02,-0.03 -0.03,-0.05 -0.04,-0.08 -0.06,-0.11 -0.12,-0.21 -0.18,-0.31 v 0 0 0 c -2.31,-3 -4.69,-5.94 -7.13,-8.83 -0.92,-1.08 -1.84,-2.15 -2.77,-3.22 -0.92,-1.06 -1.85,-2.11 -2.79,-3.15 v 0 0 l -0.29,-0.29 c -0.09,-0.11 -0.19,-0.22 -0.29,-0.33 -0.03,-0.03 -0.06,-0.06 -0.08,-0.09 -0.04,-0.04 -0.08,-0.08 -0.11,-0.12 -17.52,-19.23 -37.91,-35.75 -60.3,-48.9 v 0 0 l -1.27,-0.7 c -5.18,-3.01 -10.47,-5.86 -15.86,-8.49 l 0.56,0.24 c -0.27,-0.13 -0.54,-0.26 -0.82,-0.4 -1.27,-0.56 -2.56,-1.1 -3.83,-1.69 h -0.01 c -10.75,-5.04 -21.83,-9.43 -33.23,-12.91 v 0 c -0.46,-0.14 -0.92,-0.28 -1.38,-0.42 -0.04,-0.01 -0.08,-0.02 -0.11,-0.03 -0.04,-0.01 -0.07,-0.02 -0.1,-0.03 -21.64,-6.43 -44.12,-9.75 -66.66,-10.28 m 195.92,98.98 c -2.33,-3 -4.72,-5.95 -7.17,-8.85 2.45,2.9 4.84,5.85 7.17,8.85"
         style="fill:#4fbac6;fill-opacity:1;fill-rule:nonzero;stroke:none"
         id="path388" />
      <path
         d="m 2574.27,1185.74 c 0,0 0,0 0,0.01 v -0.01"
         style="fill:#3a81b4;fill-opacity:1;fill-rule:nonzero;stroke:none"
         id="path390" />
      <path
         d="m 2565.97,1174.43 v 0 0 c 0.06,0.1 0.12,0.2 0.18,0.31 0.01,0.03 0.02,0.05 0.04,0.08 0,0.01 0.01,0.02 0.02,0.03 2.84,5.1 10.32,16.84 11.82,16.83 v 0 0 c 0.06,0 0.12,-0.02 0.16,-0.07 v 0 c -1.28,-1.97 -2.59,-3.93 -3.92,-5.86 0,-0.01 0,-0.01 0,-0.01 -0.04,-0.05 -0.07,-0.1 -0.11,-0.16 -1.96,-2.84 -3.98,-5.65 -6.06,-8.42 -0.69,-0.93 -1.43,-1.81 -2.13,-2.73"
         style="fill:#3a81b4;fill-opacity:1;fill-rule:nonzero;stroke:none"
         id="path392" />
      <path
         d="m 2369.5,1262.04 v 57.65 c 6.57,-2.31 12.73,-5.19 17.63,-8.55 6.64,-4.55 10.97,-9.99 10.82,-16.05 0,0 0,-0.01 0,-0.02 0,-0.01 0,-0.03 0,-0.04 -0.01,-0.02 -0.01,-0.03 -0.01,-0.05 v 0 c -0.16,-4.72 -3.03,-9.81 -9.61,-15.16 -8.81,-7.16 -14.75,-12.93 -18.83,-17.78 m 12.47,261.68 c -1.32,0 -2.89,1.24 -4.4,4.05 -2.03,3.78 -4.92,6.71 -8.07,8.69 v 24.42 c 1.5,-1.51 3.2,-3.37 5.14,-5.64 8.62,-10.07 11.15,-19.9 10.69,-25.83 -0.11,-1.33 -0.36,-2.47 -0.73,-3.36 -0.61,-1.49 -1.54,-2.33 -2.63,-2.33 m 27.12,34.36 c -1.13,0 -2.03,0.2 -2.74,0.58 -0.19,0.11 -0.37,0.22 -0.53,0.35 -3.2,2.47 -1.48,9.44 -1.72,15.66 -0.02,0.38 -0.04,0.75 -0.07,1.12 -0.17,2.05 -0.67,3.51 -1.42,4.52 -0.26,0.35 -0.55,0.65 -0.86,0.9 -1.18,0.94 -2.73,1.25 -4.5,1.25 -1.67,0 -3.55,-0.28 -5.5,-0.55 -1.95,-0.28 -3.97,-0.55 -5.94,-0.55 -1.15,0 -2.27,0.09 -3.35,0.33 -0.59,0.13 -1.07,0.2 -1.46,0.2 -0.38,0 -0.67,-0.06 -0.89,-0.17 -0.3,-0.14 -0.47,-0.37 -0.54,-0.67 -0.23,-0.96 0.52,-2.65 1.32,-4.5 0.1,-0.23 0.2,-0.46 0.3,-0.7 1.35,-3.22 2.49,-6.74 -1.31,-7.79 -0.11,-0.03 -0.22,-0.06 -0.34,-0.09 -0.74,-0.16 -1.46,-0.24 -2.18,-0.24 -0.31,0 -0.62,0.02 -0.93,0.05 -0.57,0.05 -1.13,0.15 -1.68,0.28 -1.92,0.48 -3.7,1.43 -5.25,2.54 v 15.24 c 25.74,-0.61 50.56,-4.91 73.88,-12.58 -0.15,-0.08 -0.31,-0.15 -0.48,-0.23 -2.09,-1 -4.83,-2.42 -8.44,-4.35 -1.49,-0.8 -3.13,-1.69 -4.93,-2.67 -10.46,-5.71 -16.72,-7.93 -20.44,-7.93"
         style="fill:#d6ccb3;fill-opacity:1;fill-rule:nonzero;stroke:none"
         id="path394" />
      <path
         d="m 2573.08,1183.79 c 0.24,0.37 0.49,0.75 0.75,1.14 0,0 0.01,0.01 0.01,0.02 -0.26,-0.4 -0.51,-0.78 -0.76,-1.16"
         style="fill:#e2e2e0;fill-opacity:1;fill-rule:nonzero;stroke:none"
         id="path396" />
      <path
         d="m 2565.15,1172.56 c -0.1,0 0.06,0.41 0.42,1.11 2.85,3.67 5.61,7.43 8.26,11.26 -0.26,-0.39 -0.51,-0.77 -0.75,-1.14 -5.46,-8.27 -7.66,-11.23 -7.93,-11.23"
         style="fill:#3a81b4;fill-opacity:1;fill-rule:nonzero;stroke:none"
         id="path398" />
      <path
         d="m 2619.15,1329.1 c 0,0 0,0.01 0,0.02 0,-0.01 0,-0.02 0,-0.02 m 0,0.29 c 0,0.03 0,0.05 0,0.07 0,-0.02 0,-0.04 0,-0.07 m 0,0.3 c 0,0.04 0,0.1 0,0.14 0,-0.05 0,-0.09 0,-0.14 m 0.01,0.3 c 0,0.1 0,0.21 0,0.31 v 0 c 0,-0.11 0,-0.21 0,-0.31 m -129.52,222.67 c -12.61,7.17 -25.88,13.3 -39.7,18.27 0,0.02 0,0.03 0,0.05 l 0.01,-0.05 c 13.82,-4.97 27.08,-11.1 39.69,-18.27"
         style="fill:#e2e2e0;fill-opacity:1;fill-rule:nonzero;stroke:none"
         id="path400" />
      <path
         d="m 2449.94,1570.93 v 0 0.05 c 0,-0.02 0,-0.03 0,-0.05"
         style="fill:#4fbac6;fill-opacity:1;fill-rule:nonzero;stroke:none"
         id="path402" />
      <path
         d="m 2476.59,1100.97 c 0.08,0.03 0.15,0.07 0.22,0.11 l 0.05,0.02 c -0.09,-0.05 -0.18,-0.09 -0.27,-0.13 m 32.23,36.09 c -0.76,0 -1.5,0.35 -2.27,1.12 -1.56,1.55 -3.24,4.81 -5.5,10.3 -0.4,0.98 -0.74,1.94 -1.01,2.88 -5.71,19.67 16.15,29.86 24.55,38.28 0.56,0.57 1,1.16 1.34,1.77 0.57,1.03 0.82,2.12 0.85,3.24 0.05,1.77 -0.47,3.62 -1.2,5.51 -2.77,7.14 -8.65,14.76 0.98,19.88 7.1,3.81 9.62,9.9 11.1,15.72 0.21,0.81 0.39,1.61 0.57,2.4 0.84,3.79 1.45,7.32 2.86,9.82 0.13,0.23 0.26,0.46 0.41,0.67 0.47,0.7 1.03,1.3 1.7,1.78 1.58,1.13 3.37,3.09 5.01,5.54 4.76,7.14 8.22,18.48 1.61,25.78 -1,1.1 -2.22,2.1 -3.7,2.99 -2.48,1.49 -3.79,2.81 -4.25,4.04 -0.15,0.4 -0.21,0.78 -0.2,1.16 0.05,1.64 1.5,3.16 3.46,4.78 0.47,0.39 0.97,0.78 1.49,1.18 4.49,3.5 10.27,7.62 9.31,14.31 0,0.02 0,0.05 -0.01,0.07 -0.13,0.93 -0.31,1.69 -0.52,2.31 -0.6,1.78 -1.49,2.41 -2.55,2.41 -1.28,0 -2.82,-0.93 -4.38,-1.85 -0.19,-0.12 -0.38,-0.23 -0.58,-0.34 -1.25,-0.73 -2.5,-1.39 -3.63,-1.5 -0.11,-0.01 -0.22,-0.01 -0.33,-0.01 -1.56,0 -2.88,1.16 -3.65,4.78 -0.42,1.95 -0.63,3.63 -0.74,5.05 -0.18,2.37 -0.11,4.02 -0.38,5.03 -0.23,0.88 -0.71,1.29 -1.83,1.29 -0.13,0 -0.27,-0.01 -0.42,-0.02 -2.24,-0.17 -6.56,-1.57 -15.01,-3.89 -0.71,-0.19 -1.44,-0.39 -2.21,-0.6 -5.28,-1.42 -9.51,-2.09 -12.96,-2.09 -3.66,0 -6.42,0.76 -8.61,2.14 -0.91,0.58 -1.73,1.28 -2.47,2.07 -3.5,3.8 -5.22,9.94 -7.68,17.48 -0.21,0.65 -0.42,1.3 -0.64,1.97 -0.09,0.25 -0.17,0.51 -0.27,0.77 -0.15,0.43 -0.31,0.85 -0.48,1.28 -0.2,0.48 -0.4,0.95 -0.62,1.43 -4.49,9.92 -13.19,18.3 -16.47,23.21 -1.85,2.78 -1.98,4.45 1.37,4.66 0.24,0.01 0.51,0.02 0.79,0.02 2.76,0 5.25,0.32 7.41,1.15 0.19,0.07 0.37,0.14 0.56,0.22 4.09,1.78 6.89,5.53 7.93,12.57 0.31,2.09 0.47,4.48 0.45,7.19 -0.01,3 -0.23,6.39 -0.67,10.23 -0.12,1.02 -0.22,2 -0.32,2.93 -0.12,1.24 -0.22,2.4 -0.3,3.49 -0.49,6.66 -0.17,10.64 0.9,13.09 0.58,1.33 1.38,2.2 2.38,2.81 1.97,1.2 4.74,1.37 8.22,1.89 0.6,0.09 1.22,0.19 1.86,0.3 1,0.18 1.82,0.45 2.5,0.78 3.09,1.51 3.22,4.43 3.54,7.31 0.37,3.34 0.99,6.62 6.73,7.58 1.48,0.24 3.14,0.7 4.9,1.28 7.24,2.37 16.24,6.77 22.56,6.96 0.15,0.01 0.29,0.01 0.43,0.01 4.04,0 6.91,-1.85 7.36,-7.28 0.45,-5.22 0.6,-7.02 1.09,-7.67 0.07,-0.09 0.14,-0.16 0.22,-0.21 0.64,-0.39 1.76,0.18 4.14,-1.08 1.86,-0.99 4.49,-3.1 8.27,-7.68 1.7,-2.06 3.07,-3.78 4.2,-5.19 2.96,-3.73 4.22,-5.35 5.35,-5.59 0.1,-0.03 0.2,-0.04 0.3,-0.04 0.05,0 0.1,0.01 0.15,0.01 1.2,0.12 2.49,1.72 5.83,3.85 0.21,0.13 0.42,0.26 0.65,0.4 1.35,0.82 3.01,1.72 5.08,2.63 3.68,1.6 6.02,3.21 7.21,4.74 3.87,5.01 -4.45,9.21 -17.97,9.96 -2.68,0.15 -4.57,0.46 -5.9,0.89 -3.94,1.29 -2.93,3.69 -2.99,6.42 -0.06,2.33 -0.9,4.88 -6.31,7.17 -0.16,0.07 -0.32,0.13 -0.49,0.2 -7.57,3.04 -10.46,7.1 -12.68,10.86 -1.98,3.34 -3.43,6.44 -7.16,8.38 -0.24,0.12 -0.48,0.24 -0.74,0.35 -0.93,0.41 -1.69,0.6 -2.34,0.6 -0.39,0 -0.74,-0.07 -1.05,-0.2 -0.83,-0.34 -1.41,-1.11 -1.93,-2.14 -1.72,-3.42 -2.7,-9.7 -9.5,-12.69 -1.17,-0.52 -2.52,-0.94 -4.08,-1.22 -0.98,-0.18 -1.93,-0.27 -2.84,-0.27 -0.01,0 -0.03,0 -0.04,0 -4.84,0.02 -8.69,2.44 -11.28,5.76 -2.5,3.21 -3.82,7.26 -3.7,10.78 0.11,3.33 1.51,6.19 4.43,7.41 0.05,0.02 0.11,0.04 0.16,0.07 4.7,2.02 7.09,5.52 7.19,9.59 0.1,4.28 -2.35,9.2 -7.35,13.69 -4.03,3.64 -9.89,6.95 -14.37,9.44 -0.33,0.18 -0.65,0.36 -0.96,0.53 -3.65,2.03 -6.11,3.44 -5.34,3.92 0.19,0.13 0.59,0.19 1.23,0.19 0.83,0 2.07,-0.11 3.77,-0.33 3.28,-0.45 5.88,-1.38 8.04,-2.55 7.14,-3.85 9.57,-10.28 16.29,-10.28 0.37,0 0.75,0.02 1.14,0.06 0.76,0.08 1.39,0.25 1.89,0.51 0.19,0.1 0.36,0.21 0.52,0.33 2.24,1.7 1.21,5.62 -1.65,9.55 -3.38,4.62 -9.32,9.24 -15.48,10.2 -10.18,1.57 -5.33,8.76 -11.48,16.6 -1.55,1.97 -3.79,3.98 -7.14,5.95 -5.74,3.38 -9.04,4.78 -11.42,5.49 -0.99,0.29 -1.83,0.46 -2.61,0.61 -1.46,0.26 -2.75,0.44 -4.58,1.12 -1.66,0.61 -3.78,1.65 -6.86,3.54 -0.5,0.31 -0.95,0.63 -1.35,0.95 -2.91,2.31 -3.52,4.88 -3.71,6.93 v 0 0 c 13.82,-4.97 27.09,-11.1 39.7,-18.27 77.33,-43.97 129.52,-127.04 129.52,-222.36 0,-0.1 0,-0.21 0,-0.31 0,-0.05 -0.01,-0.11 -0.01,-0.16 0,-0.04 0,-0.1 0,-0.14 0,-0.08 0,-0.15 0,-0.23 0,-0.02 0,-0.04 0,-0.07 0,-0.09 0,-0.18 0,-0.27 0,-0.01 0,-0.02 0,-0.02 -0.23,-50.69 -15.34,-97.79 -41,-137.43 l 0.04,-0.06 c -1.88,2.09 -3.38,4.55 -6.54,4.9 -0.16,0.02 -0.32,0.02 -0.48,0.02 -0.84,0 -1.73,-0.22 -2.68,-0.64 -2.86,-1.28 -6.21,-4.34 -9.98,-8.38 -0.33,-0.35 -0.66,-0.71 -0.99,-1.08 -6.17,-6.75 -13.38,-15.83 -21.27,-23.84 -2.51,-2.55 -5.09,-4.99 -7.73,-7.22 -3.43,-2.89 -6.23,-5.68 -8.57,-8.18 -0.12,-0.13 -0.25,-0.26 -0.37,-0.39 -3.63,-3.91 -6.12,-7.04 -8.17,-8.62 -0.93,-0.72 -1.77,-1.12 -2.59,-1.12 m 56.75,36.61 c 0.08,0.16 0.17,0.33 0.27,0.52 h 0.01 c 2.87,3.72 5.64,7.52 8.31,11.39 0.04,0.06 0.07,0.11 0.11,0.16 v 0.01 c 1.33,1.93 2.64,3.89 3.92,5.86 v 0 c -1.16,-1.79 -2.13,-3.27 -3.12,-4.77 l -0.99,-1.53 c -0.08,-0.12 -0.16,-0.24 -0.24,-0.36 0,-0.01 -0.01,-0.02 -0.01,-0.02 -2.65,-3.83 -5.41,-7.59 -8.26,-11.26"
         style="fill:#ddd9cd;fill-opacity:1;fill-rule:nonzero;stroke:none"
         id="path404" />
      <path
         d="m 2449.94,1570.93 c -1.38,0.5 -2.75,1.03 -4.13,1.5 1.37,-0.46 2.75,-0.93 4.13,-1.45 v -0.05"
         style="fill:#e3e2e0;fill-opacity:1;fill-rule:nonzero;stroke:none"
         id="path406" />
      <path
         d="m 2492.21,1109.5 v 0 0"
         style="fill:#b2ad8c;fill-opacity:1;fill-rule:nonzero;stroke:none"
         id="path408" />
      <path
         d="m 2553.28,1159.23 v 0 0"
         style="fill:#b2ad8c;fill-opacity:1;fill-rule:nonzero;stroke:none"
         id="path410" />
      <path
         d="m 2552.51,1158.4 c 0.03,0.04 0.07,0.08 0.11,0.12 -0.04,-0.04 -0.08,-0.08 -0.11,-0.12 m 0.19,0.21 c 0.1,0.11 0.2,0.22 0.29,0.33 v 0 c -0.09,-0.11 -0.19,-0.22 -0.29,-0.33"
         style="fill:#b2ad8c;fill-opacity:1;fill-rule:nonzero;stroke:none"
         id="path412" />
      <path
         d="m 2470.98,1098.46 c -3.99,-1.86 -7.97,-3.78 -12.07,-5.44 4.11,1.65 8.08,3.57 12.08,5.44 h 0.01 -0.02"
         style="fill:#cdc6a0;fill-opacity:1;fill-rule:nonzero;stroke:none"
         id="path414" />
      <path
         d="m 2490.98,1108.82 -0.04,-0.02 c -4.17,-2.4 -8.37,-4.76 -12.68,-6.94 4.32,2.19 8.54,4.54 12.72,6.96"
         style="fill:#cdc6a0;fill-opacity:1;fill-rule:nonzero;stroke:none"
         id="path416" />
      <path
         d="m 2733,1073.51 h -291.69 v 410.22 H 2733 v -410.22"
         style="fill:#c8c6c7;fill-opacity:1;fill-rule:nonzero;stroke:none"
         id="path418" />
      <path
         d="m 2728.72,1351.7 h -283.11 c -15.47,0 -28.01,10.39 -28.01,23.21 v 52.64 c 0,12.81 12.54,23.21 28.01,23.21 h 283.11 c 15.45,0 27.99,-10.4 27.99,-23.21 v -52.64 c 0,-12.82 -12.54,-23.21 -27.99,-23.21"
         style="fill:#30313e;fill-opacity:1;fill-rule:nonzero;stroke:none"
         id="path420" />
      <path
         d="m 2728.72,1228.75 h -283.11 c -15.47,0 -28.01,10.39 -28.01,23.2 v 52.65 c 0,12.82 12.54,23.2 28.01,23.2 h 283.11 c 15.45,0 27.99,-10.38 27.99,-23.2 v -52.65 c 0,-12.81 -12.54,-23.2 -27.99,-23.2"
         style="fill:#30313e;fill-opacity:1;fill-rule:nonzero;stroke:none"
         id="path422" />
      <path
         d="m 2728.72,1105.8 h -283.11 c -15.47,0 -28.01,10.38 -28.01,23.2 v 52.65 c 0,12.82 12.54,23.2 28.01,23.2 h 283.11 c 15.45,0 27.99,-10.38 27.99,-23.2 V 1129 c 0,-12.82 -12.54,-23.2 -27.99,-23.2"
         style="fill:#30313e;fill-opacity:1;fill-rule:nonzero;stroke:none"
         id="path424" />
      <path
         d="m 2676.83,1410.64 c 0,-6.79 -5.5,-12.29 -12.28,-12.29 -6.78,0 -12.28,5.5 -12.28,12.29 0,6.79 5.5,12.28 12.28,12.28 6.78,0 12.28,-5.49 12.28,-12.28"
         style="fill:#f5ebcf;fill-opacity:1;fill-rule:nonzero;stroke:none"
         id="path426" />
      <path
         d="m 2713.03,1410.64 c 0,-6.79 -5.5,-12.29 -12.27,-12.29 -6.79,0 -12.29,5.5 -12.29,12.29 0,6.79 5.5,12.28 12.29,12.28 6.77,0 12.27,-5.49 12.27,-12.28"
         style="fill:#c01e2f;fill-opacity:1;fill-rule:nonzero;stroke:none"
         id="path428" />
      <path
         d="m 2676.83,1296.13 c 0,-6.79 -5.5,-12.29 -12.28,-12.29 -6.78,0 -12.28,5.5 -12.28,12.29 0,6.77 5.5,12.27 12.28,12.27 6.78,0 12.28,-5.5 12.28,-12.27"
         style="fill:#f5ebcf;fill-opacity:1;fill-rule:nonzero;stroke:none"
         id="path430" />
      <path
         d="m 2713.03,1296.13 c 0,-6.79 -5.5,-12.29 -12.27,-12.29 -6.79,0 -12.29,5.5 -12.29,12.29 0,6.77 5.5,12.27 12.29,12.27 6.77,0 12.27,-5.5 12.27,-12.27"
         style="fill:#c01e2f;fill-opacity:1;fill-rule:nonzero;stroke:none"
         id="path432" />
      <path
         d="m 2676.83,1181.6 c 0,-6.78 -5.5,-12.28 -12.28,-12.28 -6.78,0 -12.28,5.5 -12.28,12.28 0,6.79 5.5,12.29 12.28,12.29 6.78,0 12.28,-5.5 12.28,-12.29"
         style="fill:#f5ebcf;fill-opacity:1;fill-rule:nonzero;stroke:none"
         id="path434" />
      <path
         d="m 2713.03,1181.6 c 0,-6.78 -5.5,-12.28 -12.27,-12.28 -6.79,0 -12.29,5.5 -12.29,12.28 0,6.79 5.5,12.29 12.29,12.29 6.77,0 12.27,-5.5 12.27,-12.29"
         style="fill:#c01e2f;fill-opacity:1;fill-rule:nonzero;stroke:none"
         id="path436" />
    </g>
  </g>
</svg>
