<?xml version="1.0" encoding="UTF-8" standalone="no"?>
<!-- Created with Inkscape (http://www.inkscape.org/) -->

<svg
   version="1.1"
   id="svg2"
   width="88.677338"
   height="67.346649"
   viewBox="0 0 88.677338 67.34665"
   sodipodi:docname="3975529_13653.svg"
   xmlns:inkscape="http://www.inkscape.org/namespaces/inkscape"
   xmlns:sodipodi="http://sodipodi.sourceforge.net/DTD/sodipodi-0.dtd"
   xmlns="http://www.w3.org/2000/svg"
   xmlns:svg="http://www.w3.org/2000/svg">
  <defs
     id="defs6" />
  <sodipodi:namedview
     id="namedview4"
     pagecolor="#ffffff"
     bordercolor="#000000"
     borderopacity="0.25"
     inkscape:showpageshadow="2"
     inkscape:pageopacity="0.0"
     inkscape:pagecheckerboard="0"
     inkscape:deskcolor="#d1d1d1"
     showgrid="false"
     inkscape:zoom="1.6034404"
     inkscape:cx="235.7431"
     inkscape:cy="258.81848"
     inkscape:window-width="1920"
     inkscape:window-height="1009"
     inkscape:window-x="-8"
     inkscape:window-y="-8"
     inkscape:window-maximized="1"
     inkscape:current-layer="g10" />
  <g
     id="g8"
     inkscape:groupmode="layer"
     inkscape:label="ink_ext_XXXXXX"
     transform="matrix(1.3333333,0,0,-1.3333333,-423.436,203.23199)">
    <g
       id="g10"
       transform="scale(0.1)">
      <path
         d="m 3765.77,1345.98 c -10.61,0 -20.69,-2.23 -29.84,-6.19 1.35,5.48 2.14,11.18 2.14,17.08 0,39.58 -32.09,71.67 -71.68,71.67 -7.93,0 -15.54,-1.35 -22.66,-3.72 -7.91,41.92 -44.65,73.65 -88.87,73.65 -39.84,0 -73.58,-25.77 -85.67,-61.51 -13.62,50.25 -59.42,87.28 -113.99,87.28 -65.29,0 -118.22,-52.93 -118.22,-118.22 0,-19.42 4.76,-37.71 13.06,-53.87 -41.35,-2.09 -74.27,-36.19 -74.27,-78.06 0,-43.24 35.04,-78.28 78.27,-78.28 10.93,0 470.26,0 511.73,0 41.47,0 75.08,33.62 75.08,75.08 0,41.48 -33.61,75.09 -75.08,75.09"
         style="fill:#64ccdb;fill-opacity:1;fill-rule:nonzero;stroke:none"
         id="path190" />
      <path
         d="m 3734.28,1196.82 h -350.69 c -9.81,62.23 -3.5,116.89 -3.5,116.89 80.22,13.16 178.85,94.69 178.85,94.69 0,0 98.62,-81.53 178.85,-94.69 0,0 6.3,-54.66 -3.51,-116.89"
         style="fill:#4fbac6;fill-opacity:1;fill-rule:nonzero;stroke:none"
         id="path192" />
      <path
         d="m 3673.06,1313.71 c -80.21,13.16 -178.85,94.69 -178.85,94.69 0,0 -98.63,-81.53 -178.84,-94.69 0,0 -34.19,-294.57 178.84,-294.57 213.04,0 178.85,294.57 178.85,294.57"
         style="fill:#30313e;fill-opacity:1;fill-rule:nonzero;stroke:none"
         id="path194" />
      <path
         d="m 3623.66,1201.94 c 7.08,45.61 2.48,85.55 2.48,85.55 -59.17,9.71 -131.93,69.85 -131.93,69.85 v -155.4 h 129.45"
         style="fill:#f5ebcf;fill-opacity:1;fill-rule:nonzero;stroke:none"
         id="path196" />
      <path
         d="m 3494.21,1357.34 c 0,0 -72.75,-60.14 -131.92,-69.85 0,0 -4.6,-39.94 2.48,-85.55 h 129.44 v 155.4"
         style="fill:#c01e2f;fill-opacity:1;fill-rule:nonzero;stroke:none"
         id="path198" />
      <path
         d="m 3494.21,1201.94 v -131.73 c 89.8,0 120.01,70.92 129.45,131.73 h -129.45"
         style="fill:#c01e2f;fill-opacity:1;fill-rule:nonzero;stroke:none"
         id="path200" />
      <path
         d="m 3364.77,1201.94 c 9.43,-60.81 39.65,-131.73 129.44,-131.73 v 131.73 h -129.44"
         style="fill:#f5ebcf;fill-opacity:1;fill-rule:nonzero;stroke:none"
         id="path202" />
    </g>
  </g>
</svg>
